<svg xmlns="http://www.w3.org/2000/svg" width="20" height="20" fill="currentColor">
  <path fill-rule="evenodd" d="M4.78 1.22a.75.75 0 0 1 0 1.06l-2.5 2.5a.75.75 0 1 1-1.06-1.06l2.5-2.5a.75.75 0 0 1 1.06 0Zm10.44 0a.75.75 0 0 1 1.06 0l2.5 2.5a.75.75 0 0 1-1.06 1.06l-2.5-2.5a.75.75 0 0 1 0-1.06ZM10 3.5a6.5 6.5 0 1 0 0 13 6.5 6.5 0 0 0 0-13ZM2 10a8 8 0 1 1 14.101 5.175l1.773 2.659a.75.75 0 1 1-1.248.832l-1.618-2.427A7.966 7.966 0 0 1 10 18a7.967 7.967 0 0 1-5.008-1.761l-1.618 2.427a.75.75 0 1 1-1.248-.832l1.773-2.66A7.968 7.968 0 0 1 2 10Zm7.75-5a.75.75 0 0 1 .75.75V9.5h1.75a.75.75 0 0 1 0 1.5h-2.5a.75.75 0 0 1-.75-.75v-4.5A.75.75 0 0 1 9.75 5Z" clip-rule="evenodd"/>
</svg>
