<svg xmlns="http://www.w3.org/2000/svg" width="20" height="20" fill="currentColor">
  <path fill-rule="evenodd" d="M10.093 2.515a.303.303 0 0 0-.186 0 .612.612 0 0 0-.114.083c-.105.09-.237.22-.454.437L3.035 9.34a8.803 8.803 0 0 0-.437.454.612.612 0 0 0-.083.114.303.303 0 0 0 0 .186c.003.007.02.04.083.114.09.105.22.237.437.454l6.304 6.304c.217.217.349.347.454.437.074.062.107.08.114.083.06.02.125.02.186 0a.605.605 0 0 0 .114-.083c.105-.09.237-.22.454-.437l6.304-6.304c.217-.217.347-.349.437-.454a.605.605 0 0 0 .083-.114.303.303 0 0 0 0-.186.606.606 0 0 0-.083-.114 8.828 8.828 0 0 0-.437-.454L10.66 3.035a8.802 8.802 0 0 0-.454-.437.611.611 0 0 0-.114-.083Zm-.002-.001h.002-.002Zm7.395 7.577v.002-.002ZM9.91 17.486h-.002.002ZM2.514 9.91v-.002.002Zm6.929-8.82a1.803 1.803 0 0 1 1.114 0c.252.081.45.221.62.365.158.135.333.31.526.502l6.341 6.341c.192.193.367.368.502.526.144.17.284.368.366.62.117.362.117.752 0 1.114-.082.252-.222.45-.366.62-.135.158-.31.333-.502.526l-6.341 6.341c-.193.192-.368.367-.526.502-.17.144-.368.284-.62.366a1.804 1.804 0 0 1-1.114 0 1.83 1.83 0 0 1-.62-.366 9.504 9.504 0 0 1-.526-.502l-6.341-6.341c-.192-.193-.367-.368-.502-.526a1.827 1.827 0 0 1-.366-.62 1.803 1.803 0 0 1 0-1.114c.082-.252.222-.45.366-.62a9.51 9.51 0 0 1 .502-.526l6.341-6.341a9.51 9.51 0 0 1 .526-.502c.17-.144.368-.284.62-.366ZM10 5a.75.75 0 0 1 .75.75v3.5a.75.75 0 0 1-1.5 0v-3.5A.75.75 0 0 1 10 5Zm0 7a.75.75 0 0 1 .75.75v1.5a.75.75 0 0 1-1.5 0v-1.5A.75.75 0 0 1 10 12Z" clip-rule="evenodd"/>
</svg>
