<svg xmlns="http://www.w3.org/2000/svg" width="20" height="20" fill="currentColor">
  <path fill-rule="evenodd" d="M4.92 1h10.16c.535 0 .98 0 1.345.03.38.03.736.098 1.073.27A2.75 2.75 0 0 1 18.7 2.502c.172.337.24.694.27 1.073.03.365.03.81.03 1.345v11.33A2.75 2.75 0 0 1 16.25 19H3.75A2.75 2.75 0 0 1 1 16.25V4.92c0-.534 0-.98.03-1.345.03-.38.098-.736.27-1.073A2.75 2.75 0 0 1 2.502 1.3c.337-.172.693-.24 1.073-.27C3.94 1 4.385 1 4.92 1ZM3.697 2.525c-.287.023-.424.065-.514.111a1.25 1.25 0 0 0-.547.547c-.046.09-.088.227-.111.515-.024.295-.025.68-.025 1.252V11h2.014a2.75 2.75 0 0 1 2.46 1.52l.144.289a1.25 1.25 0 0 0 1.118.691h3.528a1.25 1.25 0 0 0 1.118-.691l.144-.289a2.75 2.75 0 0 1 2.46-1.52H17.5V4.95c0-.572 0-.957-.025-1.252-.023-.288-.065-.425-.111-.515a1.25 1.25 0 0 0-.547-.547c-.09-.046-.227-.088-.515-.111-.295-.024-.68-.025-1.252-.025H4.95c-.572 0-.957 0-1.253.025ZM17.5 12.5h-2.014a1.25 1.25 0 0 0-1.118.691l-.144.289a2.75 2.75 0 0 1-2.46 1.52H8.236a2.75 2.75 0 0 1-2.46-1.52l-.144-.289a1.25 1.25 0 0 0-1.118-.691H2.5v3.75c0 .69.56 1.25 1.25 1.25h12.5c.69 0 1.25-.56 1.25-1.25V12.5Z" clip-rule="evenodd"/>
</svg>
