<svg xmlns="http://www.w3.org/2000/svg" width="20" height="20" fill="currentColor">
  <path fill-rule="evenodd" d="M11.47 2.109a3.85 3.85 0 0 1 5.406 0 3.772 3.772 0 0 1 0 5.372l-8.159 8.073a2.3 2.3 0 0 1-3.23 0 2.26 2.26 0 0 1 0-3.22l7.07-6.996a.75.75 0 0 1 1.056 1.066L6.54 13.401a.761.761 0 0 0 0 1.087.8.8 0 0 0 1.121 0l8.16-8.074a2.272 2.272 0 0 0 0-3.24 2.35 2.35 0 0 0-3.297 0l-7.896 7.813a3.532 3.532 0 0 0-1.13 2.696c.001.251.001.35.005.43.088 1.824 1.565 3.295 3.426 3.383.081.004.182.004.436.004l.195-.001a3.626 3.626 0 0 0 2.54-1.12l5.72-5.659a.75.75 0 1 1 1.055 1.066l-5.726 5.666c-.07.069-.113.112-.158.154A5.126 5.126 0 0 1 7.596 19l-.22.001h-.034c-.223 0-.362 0-.483-.006-2.62-.123-4.727-2.2-4.853-4.809C2 14.065 2 13.927 2 13.707v-.034l.001-.219a5.032 5.032 0 0 1 1.411-3.37c.042-.044.086-.088.156-.157L11.47 2.11Z" clip-rule="evenodd"/>
</svg>
