<svg xmlns="http://www.w3.org/2000/svg" width="20" height="20" fill="currentColor">
  <path fill-rule="evenodd" d="M9.817 3.032a.75.75 0 0 1 .53.782l-.32 3.731h2.723a.75.75 0 0 1 .663 1.1l-4.2 7.955a.75.75 0 0 1-1.411-.4l.247-3.745H5.25a.75.75 0 0 1-.658-1.11l4.35-7.955a.75.75 0 0 1 .875-.358Zm-3.302 7.922H8.85a.75.75 0 0 1 .748.8l-.068 1.033 1.976-3.742H9.21a.75.75 0 0 1-.747-.814l.085-.994-2.033 3.717ZM4.847 4h.028a.75.75 0 1 1 0 1.5c-.536 0-.896 0-1.174.022-.27.02-.4.058-.485.098a1.25 1.25 0 0 0-.596.596c-.04.085-.078.215-.098.485-.021.278-.022.638-.022 1.174v4.25c0 .536 0 .896.022 1.174.02.27.058.4.098.485.124.262.334.472.596.596.085.04.215.077.485.098.278.021.638.022 1.174.022a.75.75 0 0 1 0 1.5h-.028c-.501 0-.919 0-1.26-.026-.357-.027-.692-.087-1.013-.238a2.75 2.75 0 0 1-1.31-1.31c-.151-.32-.21-.656-.238-1.012C1 13.072 1 12.654 1 12.154V7.846c0-.501 0-.919.026-1.26.028-.357.087-.692.238-1.013a2.75 2.75 0 0 1 1.31-1.31c.32-.151.656-.21 1.012-.238C3.928 4 4.346 4 4.846 4Zm9.452 1.522a17.145 17.145 0 0 0-1.174-.022.75.75 0 0 1 0-1.5h.028c.501 0 .919 0 1.26.026.357.028.692.087 1.013.238a2.75 2.75 0 0 1 1.31 1.31c.151.32.21.656.238 1.012.026.342.026.76.026 1.26v4.307c0 .5 0 .919-.026 1.26-.027.357-.087.692-.238 1.013a2.75 2.75 0 0 1-1.31 1.31c-.32.151-.656.21-1.012.238-.342.026-.76.026-1.26.026h-.029a.75.75 0 0 1 0-1.5c.536 0 .896 0 1.174-.022.27-.02.4-.057.485-.098a1.25 1.25 0 0 0 .596-.596c.04-.085.077-.215.098-.485.021-.278.022-.638.022-1.174v-4.25c0-.536 0-.896-.022-1.174-.02-.27-.057-.4-.098-.485a1.25 1.25 0 0 0-.596-.596c-.085-.04-.215-.078-.485-.098ZM18.25 8a.75.75 0 0 1 .75.75v2.5a.75.75 0 0 1-1.5 0v-2.5a.75.75 0 0 1 .75-.75Z" clip-rule="evenodd"/>
</svg>
