<svg xmlns="http://www.w3.org/2000/svg" width="20" height="20" fill="currentColor">
  <path fill-rule="evenodd" d="M9.443 1.066a.75.75 0 0 1 .805.123l4.5 4a.75.75 0 0 1 .032 1.091l-2 2a.75.75 0 1 1-1.06-1.06l1.437-1.438L10.5 3.42v2.33a.75.75 0 0 1-1.5 0v-4a.75.75 0 0 1 .443-.684Zm-8.24 1.17a.75.75 0 0 1 1.061-.032l7.991 7.521 4.489 3.96.002.003 3.998 3.498a.75.75 0 1 1-.988 1.128l-3.502-3.064-4.006 3.56A.75.75 0 0 1 9 18.25v-6.867l-2.754 2.43a.75.75 0 0 1-.992-1.125L8.33 9.973 1.236 3.296a.75.75 0 0 1-.032-1.06Zm9.297 9.705v4.639l2.619-2.328-2.619-2.31Z" clip-rule="evenodd"/>
</svg>
