<svg xmlns="http://www.w3.org/2000/svg" width="20" height="20" fill="currentColor">
  <path fill-rule="evenodd" d="M7.36 3.62a9.258 9.258 0 0 0-2.97 0c-.344.055-.688.138-1.453.324a7.409 7.409 0 0 0-.298.078.25.25 0 0 0-.133.17 7.372 7.372 0 0 0-.006.307v11.32a9.442 9.442 0 0 0 .003.225.25.25 0 0 0 .31.204c.04-.008.093-.021.18-.042l.015-.004c.333-.08.519-.126.705-.164a10.757 10.757 0 0 1 4.324 0c.186.038.372.084.705.164l.508.123V4.05l-.437-.105c-.765-.186-1.11-.269-1.453-.324Zm3.39.43v12.275l.508-.123c.333-.08.519-.126.705-.164a10.757 10.757 0 0 1 4.324 0c.186.038.372.084.705.164l.015.004c.087.02.14.034.18.042l.037.008a.25.25 0 0 0 .275-.253l.001-.184V4.5a7.262 7.262 0 0 0-.006-.308.25.25 0 0 0-.133-.17 7.358 7.358 0 0 0-.298-.078c-.765-.185-1.11-.268-1.453-.323a9.257 9.257 0 0 0-2.97 0c-.344.055-.688.138-1.453.324l-.437.106ZM4.149 2.139a10.758 10.758 0 0 1 3.452 0c.407.066.81.164 1.531.339l.67.162.144.034.03.005a.251.251 0 0 0 .048 0l.03-.005.144-.034.67-.162c.722-.175 1.124-.273 1.531-.339a10.758 10.758 0 0 1 3.452 0c.407.066.81.164 1.531.339l.034.008.047.011c.185.045.38.091.552.175.482.234.83.677.945 1.2.04.188.04.388.04.578v11.406c0 .132 0 .268-.016.386a1.75 1.75 0 0 1-1.915 1.506 2.988 2.988 0 0 1-.38-.076l-.035-.008a20.3 20.3 0 0 0-.668-.156 9.26 9.26 0 0 0-3.722 0 20.3 20.3 0 0 0-.668.156l-1.044.253a10.96 10.96 0 0 1-.027.006c-.112.027-.23.056-.355.068a1.748 1.748 0 0 1-.34 0 2.426 2.426 0 0 1-.355-.068 10.88 10.88 0 0 1-.027-.006l-1.044-.253a20.319 20.319 0 0 0-.668-.156 9.26 9.26 0 0 0-3.722 0c-.157.032-.316.07-.668.156l-.036.008c-.128.032-.26.064-.38.076a1.75 1.75 0 0 1-1.914-1.506C1 16.125 1 15.989 1 15.857V4.449c0-.189 0-.389.04-.576a1.75 1.75 0 0 1 .945-1.201c.173-.084.367-.13.551-.175l.048-.011.034-.008c.722-.175 1.124-.273 1.53-.339Z" clip-rule="evenodd"/>
</svg>
