<svg xmlns="http://www.w3.org/2000/svg" width="20" height="20" fill="currentColor">
  <path fill-rule="evenodd" d="M1 1.75A.75.75 0 0 1 1.75 1h16.5a.75.75 0 0 1 0 1.5H1.75A.75.75 0 0 1 1 1.75Zm9 5a.75.75 0 0 1 .75.75v1.75h1.75a.75.75 0 0 1 0 1.5h-1.75v1.75a.75.75 0 0 1-1.5 0v-1.75H7.5a.75.75 0 0 1 0-1.5h1.75V7.5a.75.75 0 0 1 .75-.75ZM1.75 8a.75.75 0 0 1 .75.75v2.5a.75.75 0 0 1-1.5 0v-2.5A.75.75 0 0 1 1.75 8Zm16.5 0a.75.75 0 0 1 .75.75v2.5a.75.75 0 0 1-1.5 0v-2.5a.75.75 0 0 1 .75-.75Zm-16.5 6a.75.75 0 0 1 .75.75v1.9c0 .292 0 .467.011.596a.625.625 0 0 0 .018.12.25.25 0 0 0 .104.105.638.638 0 0 0 .121.018c.13.01.304.011.596.011h1.9a.75.75 0 0 1 0 1.5H3.324c-.258 0-.494 0-.692-.016a1.775 1.775 0 0 1-.676-.175 1.75 1.75 0 0 1-.765-.765 1.774 1.774 0 0 1-.175-.676C1 17.17 1 16.934 1 16.676V14.75a.75.75 0 0 1 .75-.75Zm.88 3.47h.002-.001Zm-.1-.1v-.002.001ZM18.25 14a.75.75 0 0 1 .75.75v1.926c0 .258 0 .494-.016.692a1.775 1.775 0 0 1-.175.677 1.75 1.75 0 0 1-.765.764 1.77 1.77 0 0 1-.676.175c-.198.016-.434.016-.692.016H14.75a.75.75 0 0 1 0-1.5h1.9c.292 0 .467 0 .596-.011a.636.636 0 0 0 .12-.018.25.25 0 0 0 .105-.105.636.636 0 0 0 .018-.12c.01-.13.011-.304.011-.596v-1.9a.75.75 0 0 1 .75-.75Zm-.88 3.47h-.002.001ZM8 18.25a.75.75 0 0 1 .75-.75h2.5a.75.75 0 0 1 0 1.5h-2.5a.75.75 0 0 1-.75-.75Z" clip-rule="evenodd"/>
</svg>
