<svg xmlns="http://www.w3.org/2000/svg" width="20" height="20" fill="currentColor">
  <path fill-rule="evenodd" d="M3.324 1h13.352c.258 0 .494 0 .692.016.213.018.446.057.677.175.329.168.596.435.764.765.118.23.157.463.175.676.016.198.016.434.016.692v13.352c0 .258 0 .494-.016.692a1.775 1.775 0 0 1-.175.677 1.75 1.75 0 0 1-.765.764 1.77 1.77 0 0 1-.676.175c-.198.016-.434.016-.692.016H3.324c-.258 0-.494 0-.692-.016a1.775 1.775 0 0 1-.676-.175 1.75 1.75 0 0 1-.765-.765 1.774 1.774 0 0 1-.175-.676C1 17.17 1 16.934 1 16.676V3.324c0-.258 0-.494.016-.692a1.77 1.77 0 0 1 .175-.676 1.75 1.75 0 0 1 .765-.765 1.77 1.77 0 0 1 .676-.175C2.83 1 3.066 1 3.324 1ZM2.5 10.75v5.9c0 .292 0 .467.011.596a.625.625 0 0 0 .018.12.25.25 0 0 0 .104.105.638.638 0 0 0 .121.018c.13.01.304.011.596.011h5.9v-6.75H2.5Zm6.75-1.5H2.5v-5.9c0-.292 0-.467.011-.596a.626.626 0 0 1 .018-.12.25.25 0 0 1 .104-.105.626.626 0 0 1 .121-.018c.13-.01.304-.011.596-.011h5.9v6.75Zm1.5 1.5v6.75h5.9c.292 0 .467 0 .596-.011a.636.636 0 0 0 .12-.018.25.25 0 0 0 .105-.105.636.636 0 0 0 .018-.12c.01-.13.011-.304.011-.596v-5.9h-6.75Zm6.75-1.5h-6.75V2.5h5.9c.292 0 .467 0 .596.011a.625.625 0 0 1 .12.018.25.25 0 0 1 .105.104.638.638 0 0 1 .018.121c.01.13.011.304.011.596v5.9Zm-.03-6.62v.002-.001Zm-.1-.1h-.002.001Zm0 14.94h-.002.001ZM2.63 2.53h.002-.001Zm-.1.102a.01.01 0 0 1 0-.001v.001Zm.1 14.838h.002-.001Zm-.1-.1v-.002.001Z" clip-rule="evenodd"/>
</svg>
