<svg xmlns="http://www.w3.org/2000/svg" width="20" height="20" fill="currentColor">
  <path fill-rule="evenodd" d="M3.324 1h.926a.75.75 0 1 1 0 1.5h-.9c-.292 0-.467 0-.596.011a.626.626 0 0 0-.12.018.25.25 0 0 0-.105.104.626.626 0 0 0-.018.121c-.01.13-.011.304-.011.596v.9a.75.75 0 1 1-1.5 0v-.926c0-.258 0-.494.016-.692a1.77 1.77 0 0 1 .175-.676 1.75 1.75 0 0 1 .765-.765 1.77 1.77 0 0 1 .676-.175C2.83 1 3.066 1 3.324 1ZM2.53 2.63v.002-.001Zm.1-.1h.002-.001ZM8 1.75A.75.75 0 0 1 8.75 1h2.5a.75.75 0 0 1 0 1.5h-2.5A.75.75 0 0 1 8 1.75ZM18.25 1a.75.75 0 0 1 .75.75v16.5a.75.75 0 0 1-1.5 0V1.75a.75.75 0 0 1 .75-.75ZM10 6.75a.75.75 0 0 1 .75.75v1.75h1.75a.75.75 0 0 1 0 1.5h-1.75v1.75a.75.75 0 0 1-1.5 0v-1.75H7.5a.75.75 0 0 1 0-1.5h1.75V7.5a.75.75 0 0 1 .75-.75ZM1.75 8a.75.75 0 0 1 .75.75v2.5a.75.75 0 0 1-1.5 0v-2.5A.75.75 0 0 1 1.75 8Zm0 7a.75.75 0 0 1 .75.75v.9c0 .292 0 .467.011.596a.625.625 0 0 0 .018.12.25.25 0 0 0 .104.105.638.638 0 0 0 .121.018c.13.01.304.011.596.011h.9a.75.75 0 0 1 0 1.5h-.926c-.258 0-.494 0-.692-.016a1.775 1.775 0 0 1-.676-.175 1.75 1.75 0 0 1-.765-.765 1.774 1.774 0 0 1-.175-.676C1 17.17 1 16.934 1 16.676v-.926a.75.75 0 0 1 .75-.75Zm.88 2.47h.002-.001Zm-.1-.1v-.002.001Zm5.47.88a.75.75 0 0 1 .75-.75h2.5a.75.75 0 0 1 0 1.5h-2.5a.75.75 0 0 1-.75-.75Z" clip-rule="evenodd"/>
</svg>
