<svg xmlns="http://www.w3.org/2000/svg" width="20" height="20" fill="currentColor">
  <path fill-rule="evenodd" d="M4 7a6 6 0 1 1 12 0v.493a5.902 5.902 0 0 1-2.628 4.91.835.835 0 0 0-.372.695v1.584C13 15.41 12.41 16 11.682 16H8.318C7.59 16 7 15.41 7 14.682v-1.584c0-.279-.14-.54-.372-.695A5.902 5.902 0 0 1 4 7.493V7Zm6-4.5A4.5 4.5 0 0 0 5.5 7v.493c0 1.472.736 2.846 1.96 3.662a2.335 2.335 0 0 1 1.04 1.943V14.5h3v-1.402c0-.78.39-1.51 1.04-1.943a4.402 4.402 0 0 0 1.96-3.662V7A4.5 4.5 0 0 0 10 2.5ZM8 18.25a.75.75 0 0 1 .75-.75h2.5a.75.75 0 0 1 0 1.5h-2.5a.75.75 0 0 1-.75-.75Z" clip-rule="evenodd"/>
</svg>
