<svg xmlns="http://www.w3.org/2000/svg" width="20" height="20" fill="currentColor">
  <path fill-rule="evenodd" d="M6.75 1a.75.75 0 0 1 .75.75V3h5V1.75a.75.75 0 0 1 1.5 0V3h2.25A2.75 2.75 0 0 1 19 5.75v3a.75.75 0 0 1-.75.75H2.5v6.75c0 .69.56 1.25 1.25 1.25h5a.75.75 0 0 1 0 1.5h-5A2.75 2.75 0 0 1 1 16.25V5.75A2.75 2.75 0 0 1 3.75 3H6V1.75A.75.75 0 0 1 6.75 1ZM6 4.5H3.75c-.69 0-1.25.56-1.25 1.25V8h15V5.75c0-.69-.56-1.25-1.25-1.25H14v.75a.75.75 0 0 1-1.5 0V4.5h-5v.75a.75.75 0 0 1-1.5 0V4.5Zm12.286 9.214a.73.73 0 0 0-1.033 0L13.5 17.467V18.5h1.033l3.753-3.753a.73.73 0 0 0 0-1.033Zm-2.094-1.06a2.23 2.23 0 1 1 3.155 3.154l-3.973 3.972a.75.75 0 0 1-.53.22H12.75a.75.75 0 0 1-.75-.75v-2.094a.75.75 0 0 1 .22-.53l3.972-3.973Z" clip-rule="evenodd"/>
</svg>
