<svg xmlns="http://www.w3.org/2000/svg" width="20" height="20" fill="currentColor">
  <path fill-rule="evenodd" d="M8.667 2h2.666c.284 0 .588-.002.87.096.245.084.468.222.654.404.213.208.348.48.474.735l.032.064.35.701h1.367c.535 0 .98 0 1.345.03.38.03.736.098 1.073.27A2.75 2.75 0 0 1 18.7 5.502c.172.337.24.693.27 1.073.03.365.03.81.03 1.345v6.16c0 .535 0 .98-.03 1.345-.03.38-.098.736-.27 1.073a2.751 2.751 0 0 1-1.2 1.202c-.338.172-.694.24-1.074.27-.365.03-.81.03-1.345.03H4.92c-.535 0-.98 0-1.345-.03-.38-.03-.736-.098-1.073-.27A2.75 2.75 0 0 1 1.3 16.5c-.172-.338-.24-.694-.27-1.074C1 15.06 1 14.615 1 14.08V7.92c0-.535 0-.98.03-1.345.03-.38.098-.736.27-1.073A2.75 2.75 0 0 1 2.502 4.3c.337-.172.693-.24 1.073-.27C3.94 4 4.385 4 4.92 4h1.366l.351-.701a27.5 27.5 0 0 0 .032-.064c.126-.255.262-.527.475-.735a1.75 1.75 0 0 1 .653-.404c.282-.098.586-.097.87-.096Zm-.383 1.514h.002-.002Zm.078-.009a.504.504 0 0 0-.076.009.25.25 0 0 0-.092.057.503.503 0 0 0-.042.064c-.04.07-.09.166-.173.335L7.42 5.085a.75.75 0 0 1-.671.415h-1.8c-.572 0-.957 0-1.253.025-.287.023-.424.065-.514.111a1.25 1.25 0 0 0-.547.547c-.046.09-.088.227-.111.514-.024.296-.025.68-.025 1.253v6.1c0 .572 0 .957.025 1.252.023.288.065.425.111.516.12.235.311.426.547.546.09.046.227.088.514.111.296.024.68.025 1.253.025h10.1c.572 0 .957 0 1.252-.025.288-.023.425-.065.515-.111a1.25 1.25 0 0 0 .547-.546c.046-.091.088-.228.111-.515.024-.296.025-.68.025-1.253v-6.1c0-.572 0-.957-.025-1.253-.023-.287-.065-.424-.111-.514a1.25 1.25 0 0 0-.547-.547c-.09-.046-.227-.088-.515-.111-.295-.024-.68-.025-1.252-.025h-1.8a.75.75 0 0 1-.67-.415L12.02 3.97a6.822 6.822 0 0 0-.173-.335.485.485 0 0 0-.042-.064.25.25 0 0 0-.09-.057m-.002 0a.507.507 0 0 0-.076-.009 6.88 6.88 0 0 0-.377-.005H8.74c-.189 0-.296 0-.377.005m3.443.065.001.001V3.57Zm-3.61 0-.001.001V3.57ZM10 8.5a2.5 2.5 0 1 0 0 5 2.5 2.5 0 0 0 0-5ZM6 11a4 4 0 1 1 8 0 4 4 0 0 1-8 0Z" clip-rule="evenodd"/>
</svg>
