<svg xmlns="http://www.w3.org/2000/svg" width="20" height="20" fill="currentColor">
  <path fill-rule="evenodd" d="M6.75 2.75C6.75 1.784 7.534 1 8.5 1h3c.966 0 1.75.784 1.75 1.75V10h3c.966 0 1.75.784 1.75 1.75v5.5A1.75 1.75 0 0 1 16.25 19H3.75A1.75 1.75 0 0 1 2 17.25v-9.5C2 6.784 2.784 6 3.75 6h3V2.75Zm0 4.75h-3a.25.25 0 0 0-.25.25v9.5c0 .138.112.25.25.25h3v-10Zm1.5 10h3.5V2.75a.25.25 0 0 0-.25-.25h-3a.25.25 0 0 0-.25.25V17.5Zm5 0h3a.25.25 0 0 0 .25-.25v-5.5a.25.25 0 0 0-.25-.25h-3v6Z" clip-rule="evenodd"/>
</svg>
