<svg xmlns="http://www.w3.org/2000/svg" width="20" height="20" fill="currentColor">
  <path fill-rule="evenodd" d="M1.75 1a.75.75 0 0 1 .75.75v11.19l4.72-4.72a.75.75 0 0 1 .946-.094l3.947 2.631 5.568-6.495a.75.75 0 1 1 1.138.976l-6 7a.75.75 0 0 1-.985.136L7.846 9.715 2.5 15.061c0 .566 0 .948.025 1.241.023.288.065.425.111.515.12.236.311.427.547.547.09.046.227.088.514.111.296.024.68.025 1.253.025h12.3a.75.75 0 0 1 0 1.5H4.92c-.535 0-.98 0-1.345-.03-.38-.03-.736-.098-1.073-.27A2.75 2.75 0 0 1 1.3 17.5c-.172-.338-.24-.694-.27-1.074C1 16.06 1 15.615 1 15.08V1.75A.75.75 0 0 1 1.75 1Z" clip-rule="evenodd"/>
</svg>
