<svg xmlns="http://www.w3.org/2000/svg" width="20" height="20" fill="currentColor">
  <path fill-rule="evenodd" d="M8 2.5C4.835 2.5 2.5 4.632 2.5 7c0 .838.448 1.805 1.168 2.59l.006.005c.55.598.968 1.054 1.264 1.387.148.167.272.31.368.428.087.107.182.231.247.35l.039.07.064.119a1.448 1.448 0 0 1 .154.436l.024.133.014.079c.032.182.037.378.032.583.34-.36.695-.724.992-1.006.155-.146.307-.283.44-.387.066-.05.143-.107.224-.153l.003-.002c.05-.028.229-.132.461-.132 3.165 0 5.5-2.132 5.5-4.5S11.165 2.5 8 2.5ZM1 7c0-3.43 3.262-6 7-6s7 2.57 7 6c0 3.37-3.146 5.908-6.8 5.998a5.76 5.76 0 0 0-.297.266c-.281.266-.634.629-.985 1a70.088 70.088 0 0 0-1.244 1.357l-.084.094-.028.032a.75.75 0 0 1-1.31-.547l.078-1.17c.025-.376.042-.639.049-.838a1.87 1.87 0 0 0-.008-.332l-.018-.104-.016-.088-.002-.01a1.108 1.108 0 0 0-.047-.086 22.062 22.062 0 0 1-.052-.094c-.008-.01-.034-.048-.094-.122a11.898 11.898 0 0 0-.325-.378c-.287-.322-.697-.769-1.253-1.374C1.674 9.637 1 8.324 1 7Zm15.605.897a.75.75 0 0 1 1.06.038C18.49 8.821 19 9.963 19 11.222c0 1.014-.445 2.01-1.052 2.797-.55.71-.958 1.237-1.24 1.611-.141.188-.247.331-.321.437a2.962 2.962 0 0 0-.093.138 11.672 11.672 0 0 1-.079.163l-.002.017-.024.163c-.017.113-.008.326.038 1.026l.041.627a.75.75 0 0 1-1.313.543l-.001-.002-.023-.026-.07-.08a59.987 59.987 0 0 0-1.043-1.153 22.514 22.514 0 0 0-.823-.848 5.427 5.427 0 0 0-.211-.194 6.635 6.635 0 0 1-2.939-.774.75.75 0 1 1 .71-1.321 5.16 5.16 0 0 0 2.445.598c.23 0 .405.103.45.13l.004.001c.075.044.144.096.201.14.117.093.248.212.379.338.207.198.446.444.683.696l.008-.056.008-.058c.007-.046.018-.122.044-.207a1.36 1.36 0 0 1 .105-.248l.056-.117c.055-.116.143-.246.221-.358.09-.127.207-.286.351-.478a207.3 207.3 0 0 1 1.247-1.621l.004-.005c.469-.606.739-1.289.739-1.879 0-.838-.337-1.625-.933-2.265a.75.75 0 0 1 .038-1.06Z" clip-rule="evenodd"/>
</svg>
