<svg xmlns="http://www.w3.org/2000/svg" width="20" height="20" fill="currentColor">
  <path fill-rule="evenodd" d="M8.324 1h3.352c.258 0 .494 0 .692.016.213.018.446.057.676.175.33.168.598.435.765.765.118.23.158.463.175.676.009.111.013.235.015.368h.081c.535 0 .98 0 1.345.03.38.03.736.098 1.073.27A2.75 2.75 0 0 1 17.7 4.502c.172.337.24.693.27 1.073.03.365.03.81.03 1.345v8.16c0 .535 0 .98-.03 1.345-.03.38-.098.736-.27 1.073a2.751 2.751 0 0 1-1.2 1.202c-.338.172-.694.24-1.074.27-.365.03-.81.03-1.345.03H5.92c-.535 0-.98 0-1.345-.03-.38-.03-.736-.098-1.073-.27A2.75 2.75 0 0 1 2.3 17.5c-.172-.338-.24-.694-.27-1.074C2 16.06 2 15.615 2 15.08V6.92c0-.535 0-.98.03-1.345.03-.38.098-.736.27-1.073A2.75 2.75 0 0 1 3.502 3.3c.337-.172.693-.24 1.073-.27C4.94 3 5.385 3 5.92 3H6c.002-.133.006-.256.015-.368a1.77 1.77 0 0 1 .175-.676 1.75 1.75 0 0 1 .765-.765 1.77 1.77 0 0 1 .676-.175C7.83 1 8.066 1 8.324 1ZM6 4.5h-.05c-.572 0-.957 0-1.253.025-.287.023-.424.065-.514.111a1.25 1.25 0 0 0-.547.547c-.046.09-.088.227-.111.514-.024.296-.025.68-.025 1.253v8.1c0 .572 0 .957.025 1.252.023.288.065.425.111.515.12.236.311.427.547.547.09.046.227.088.514.111.296.024.68.025 1.253.025h8.1c.572 0 .957 0 1.252-.025.288-.023.425-.065.516-.111a1.25 1.25 0 0 0 .546-.547c.046-.09.088-.227.111-.515.024-.295.025-.68.025-1.252v-8.1c0-.572 0-.957-.025-1.253-.023-.287-.065-.424-.111-.514a1.25 1.25 0 0 0-.546-.547c-.091-.046-.228-.088-.515-.111-.296-.024-.68-.025-1.253-.025h-.051a5.464 5.464 0 0 1-.015.368 1.775 1.775 0 0 1-.175.676 1.75 1.75 0 0 1-.764.765c-.23.118-.464.157-.677.175-.198.016-.434.016-.692.016H8.324c-.258 0-.494 0-.692-.016a1.774 1.774 0 0 1-.676-.175 1.75 1.75 0 0 1-.765-.765 1.774 1.774 0 0 1-.175-.676 5.484 5.484 0 0 1-.015-.368Zm1.63-1.97h.001Zm.002-.001a.626.626 0 0 1 .121-.018c.13-.01.304-.011.596-.011h3.3c.292 0 .467 0 .596.011a.625.625 0 0 1 .12.018.25.25 0 0 1 .105.104.638.638 0 0 1 .018.121c.01.13.011.304.011.596v.8c0 .292 0 .467-.011.596a.638.638 0 0 1-.018.12.25.25 0 0 1-.104.105.626.626 0 0 1-.121.018c-.13.01-.304.011-.596.011h-3.3c-.292 0-.467 0-.596-.011a.628.628 0 0 1-.12-.018.25.25 0 0 1-.105-.104.628.628 0 0 1-.018-.121 8.339 8.339 0 0 1-.01-.596v-.8c0-.292 0-.467.011-.596a.628.628 0 0 1 .018-.12.25.25 0 0 1 .104-.105Zm-.103.102v.001Zm0 2.238v-.001Zm.1.101h.002Zm4.74 0h-.002Zm.1-.1v-.002Zm0-2.24v.002Zm-.102-.1h.001Z" clip-rule="evenodd"/>
</svg>
