<svg xmlns="http://www.w3.org/2000/svg" width="20" height="20" fill="currentColor">
  <path fill-rule="evenodd" d="M1 3.75A2.75 2.75 0 0 1 3.75 1h12.5A2.75 2.75 0 0 1 19 3.75v9.5A2.75 2.75 0 0 1 16.25 16h-3a1.25 1.25 0 0 0-1 .5l-1.65 2.2a.75.75 0 0 1-1.2 0l-1.65-2.2a1.25 1.25 0 0 0-1-.5h-3A2.75 2.75 0 0 1 1 13.25v-9.5ZM3.75 2.5c-.69 0-1.25.56-1.25 1.25v9.5c0 .69.56 1.25 1.25 1.25h3c.866 0 1.68.408 2.2 1.1L10 17l1.05-1.4a2.75 2.75 0 0 1 2.2-1.1h3c.69 0 1.25-.56 1.25-1.25v-9.5c0-.69-.56-1.25-1.25-1.25H3.75Z" clip-rule="evenodd"/>
</svg>
