<svg xmlns="http://www.w3.org/2000/svg" width="20" height="20" fill="currentColor">
  <path fill-rule="evenodd" d="M10 2.5a7.5 7.5 0 1 0 0 15 7.5 7.5 0 0 0 0-15ZM1 10a9 9 0 1 1 18 0 9 9 0 0 1-18 0Zm13.78-4.78a.75.75 0 0 1 .187.75l-1.502 4.881-.027.089c-.155.506-.277.903-.504 1.241a2.74 2.74 0 0 1-.753.753c-.338.227-.735.349-1.241.504l-.089.027-4.88 1.502a.75.75 0 0 1-.938-.938l1.502-4.88.027-.089c.155-.506.277-.903.504-1.241.2-.298.455-.553.753-.753.338-.227.735-.349 1.241-.504l.089-.027 4.88-1.502a.75.75 0 0 1 .751.187Zm-1.663 1.663L9.59 7.97c-.637.195-.805.255-.936.343a1.25 1.25 0 0 0-.342.342c-.088.131-.148.3-.343.936l-1.086 3.527 3.527-1.086c.637-.195.805-.255.936-.343a1.25 1.25 0 0 0 .342-.342c.088-.131.148-.3.343-.936l1.085-3.527Z" clip-rule="evenodd"/>
</svg>
