<svg xmlns="http://www.w3.org/2000/svg" width="20" height="20" fill="currentColor">
  <path fill-rule="evenodd" d="M5.324 1h5.352c.258 0 .494 0 .692.016.213.018.446.057.676.175.33.168.598.435.765.765.118.23.158.463.175.676.016.198.016.434.016.692V7h1.676c.258 0 .494 0 .692.016.213.018.446.057.676.175.33.168.598.435.765.765.118.23.157.463.175.676.016.198.016.434.016.692V17.5h1.25a.75.75 0 0 1 0 1.5H1.75a.75.75 0 0 1 0-1.5H3V3.324c0-.258 0-.494.016-.692a1.77 1.77 0 0 1 .175-.676 1.75 1.75 0 0 1 .765-.765 1.77 1.77 0 0 1 .676-.175C4.83 1 5.066 1 5.324 1ZM4.5 17.5h7V3.35c0-.292 0-.467-.011-.596a.638.638 0 0 0-.018-.12.25.25 0 0 0-.104-.105.625.625 0 0 0-.121-.018 8.336 8.336 0 0 0-.596-.011h-5.3c-.292 0-.467 0-.596.011a.626.626 0 0 0-.12.018.25.25 0 0 0-.105.104.628.628 0 0 0-.018.121c-.01.13-.011.304-.011.596V17.5Zm.03-14.87v.002-.001Zm.1-.1h.002-.001Zm6.74 0h-.002.001Zm.1.1v.002-.001ZM13 8.5v9h2.5V9.35c0-.292 0-.467-.011-.596a.638.638 0 0 0-.018-.12.25.25 0 0 0-.104-.105.625.625 0 0 0-.121-.018 8.336 8.336 0 0 0-.596-.011H13Zm2.37.03h-.002.001Zm.1.1v.002-.001ZM6 5.75A.75.75 0 0 1 6.75 5h2.5a.75.75 0 0 1 0 1.5h-2.5A.75.75 0 0 1 6 5.75ZM6 10a.75.75 0 0 1 .75-.75h2.5a.75.75 0 0 1 0 1.5h-2.5A.75.75 0 0 1 6 10Zm0 4.25a.75.75 0 0 1 .75-.75h2.5a.75.75 0 0 1 0 1.5h-2.5a.75.75 0 0 1-.75-.75Z" clip-rule="evenodd"/>
</svg>
