<svg xmlns="http://www.w3.org/2000/svg" width="20" height="20" fill="currentColor">
  <path fill-rule="evenodd" d="M1 3.75A2.75 2.75 0 0 1 3.75 1h8.5A2.75 2.75 0 0 1 15 3.75V5h1.25A2.75 2.75 0 0 1 19 7.75v8.5A2.75 2.75 0 0 1 16.25 19h-8.5A2.75 2.75 0 0 1 5 16.25V15H3.75A2.75 2.75 0 0 1 1 12.25v-8.5Zm4 9.75V7.75A2.75 2.75 0 0 1 7.75 5h5.75V3.75c0-.69-.56-1.25-1.25-1.25h-8.5c-.69 0-1.25.56-1.25 1.25v8.5c0 .69.56 1.25 1.25 1.25H5Zm2.75-7c-.69 0-1.25.56-1.25 1.25v8.5c0 .69.56 1.25 1.25 1.25h8.5c.69 0 1.25-.56 1.25-1.25v-8.5c0-.69-.56-1.25-1.25-1.25h-8.5Z" clip-rule="evenodd"/>
</svg>
