<svg xmlns="http://www.w3.org/2000/svg" width="20" height="20" fill="currentColor">
  <path fill-rule="evenodd" d="M5.92 2h8.16c.535 0 .98 0 1.345.03.38.03.736.098 1.073.27A2.75 2.75 0 0 1 17.7 3.502c.172.337.24.693.27 1.073.03.365.03.81.03 1.345v.249l.044.022c.33.168.598.435.765.765.118.23.157.463.175.676.016.198.016.434.016.692v8.352c0 .258 0 .494-.016.692a1.775 1.775 0 0 1-.175.677 1.75 1.75 0 0 1-.765.764 1.77 1.77 0 0 1-.676.175c-.198.016-.434.016-.692.016h-3.352c-.258 0-.494 0-.692-.016a1.775 1.775 0 0 1-.676-.175 1.75 1.75 0 0 1-.787-.809h-6.25c-.534 0-.98 0-1.344-.03-.38-.03-.736-.098-1.073-.27A2.75 2.75 0 0 1 1.3 16.5c-.172-.338-.24-.694-.27-1.074C1 15.06 1 14.615 1 14.08v-.33a.75.75 0 0 1 .75-.75H2V5.92c0-.535 0-.98.03-1.345.03-.38.098-.736.27-1.073A2.75 2.75 0 0 1 3.502 2.3c.337-.172.693-.24 1.073-.27C4.94 2 5.385 2 5.92 2ZM2.5 14.5c.002.336.008.592.025.803.023.287.065.424.111.514.12.236.311.427.547.547.09.046.227.088.514.111.296.024.68.025 1.253.025H11V16H8.651a2.434 2.434 0 0 1-2.025-1.084.934.934 0 0 0-.777-.416H2.5Zm8.5 0H8.651a.934.934 0 0 1-.777-.416A2.434 2.434 0 0 0 5.849 13H3.5V5.95c0-.572 0-.957.025-1.253.023-.287.065-.424.111-.514a1.25 1.25 0 0 1 .547-.547c.09-.046.227-.088.514-.111.296-.024.68-.025 1.253-.025h8.1c.572 0 .957 0 1.252.025.288.023.425.065.516.111.235.12.426.311.546.547.046.09.088.227.111.514.024.296.025.68.025 1.253V6h-3.176c-.258 0-.494 0-.692.016a1.774 1.774 0 0 0-.676.175 1.75 1.75 0 0 0-.765.765c-.118.23-.158.463-.175.676C11 7.83 11 8.066 11 8.324V14.5Zm1.63-6.97h.002Zm.003-.001a.626.626 0 0 1 .121-.018c.13-.01.304-.011.596-.011h3.3c.292 0 .467 0 .596.011a.626.626 0 0 1 .12.018.25.25 0 0 1 .105.104.638.638 0 0 1 .018.121c.01.13.011.304.011.596v8.3c0 .292 0 .467-.011.596a.636.636 0 0 1-.018.12.25.25 0 0 1-.105.105.636.636 0 0 1-.12.018c-.13.01-.304.011-.596.011h-3.3c-.292 0-.467 0-.596-.011a.636.636 0 0 1-.12-.018.25.25 0 0 1-.105-.105.636.636 0 0 1-.018-.12 8.373 8.373 0 0 1-.011-.596v-8.3c0-.292 0-.467.011-.596a.638.638 0 0 1 .018-.12.25.25 0 0 1 .104-.105Zm-.103.102v.001Zm0 9.738v-.001Zm.1.101h.002Zm4.74 0h-.002Zm.1-9.84v.002Zm-.102-.1h.001Z" clip-rule="evenodd"/>
</svg>
