<svg xmlns="http://www.w3.org/2000/svg" width="20" height="20" fill="currentColor">
  <path fill-rule="evenodd" d="M5.59 2h8.82c.262 0 .542-.001.806.083.23.073.442.193.623.353.208.183.352.423.487.649l.025.043 2.176 3.308a23.624 23.624 0 0 0 .064.104c.15.249.316.524.375.828.021.108.032.217.032.325a.763.763 0 0 1-.01.193c-.01.098-.03.194-.056.288-.085.302-.272.562-.448.806l-.045.061a.755.755 0 0 1-.042.054l-6.507 7.53a10.46 10.46 0 0 1-.552.726c-.175.201-.392.407-.69.526a1.75 1.75 0 0 1-1.296 0c-.298-.12-.515-.325-.69-.526a10.47 10.47 0 0 1-.552-.726l-6.507-7.53a.75.75 0 0 1-.042-.054l-.044-.06c-.177-.245-.364-.505-.45-.807a1.771 1.771 0 0 1-.055-.288.754.754 0 0 1-.01-.193c0-.108.01-.217.032-.325.059-.304.225-.579.376-.827a19.782 19.782 0 0 0 .063-.105L3.65 3.128l.025-.043c.135-.226.279-.466.487-.65.18-.159.393-.279.623-.352.264-.084.544-.084.806-.083Zm-.77 2.075L2.899 7h5.155L4.821 4.075ZM10 8.5H3.07l6.196 7.17a.766.766 0 0 1 .042.053c.227.316.369.51.484.643.073.084.11.112.12.12a.25.25 0 0 0 .173 0 .765.765 0 0 0 .12-.12c.116-.132.258-.327.485-.643a.736.736 0 0 1 .042-.053l6.196-7.17H10ZM17.102 7h-5.155l3.232-2.925L17.102 7ZM13.58 3.5H6.421L10 6.739 13.58 3.5Zm-3.496 12.988h.001Zm-.166 0h-.001Z" clip-rule="evenodd"/>
</svg>
