<svg xmlns="http://www.w3.org/2000/svg" width="20" height="20" fill="currentColor">
  <path fill-rule="evenodd" d="M10 2.5a7.5 7.5 0 1 0 0 15 7.5 7.5 0 0 0 0-15ZM1 10a9 9 0 1 1 18 0 9 9 0 0 1-18 0Zm5-1.75a.75.75 0 0 1 .75-.75h1a.75.75 0 0 1 0 1.5h-1A.75.75 0 0 1 6 8.25Zm5.5 0a.75.75 0 0 1 .75-.75h1a.75.75 0 0 1 0 1.5h-1a.75.75 0 0 1-.75-.75Zm-4.585 3.83a.75.75 0 0 1 1.006.335c.335.67 1.142 1.085 2.079 1.085.937 0 1.744-.415 2.08-1.085a.75.75 0 1 1 1.34.67C12.757 14.415 11.314 15 10 15c-1.313 0-2.756-.585-3.42-1.915a.75.75 0 0 1 .335-1.006Z" clip-rule="evenodd"/>
</svg>
