<svg xmlns="http://www.w3.org/2000/svg" width="20" height="20" fill="currentColor">
  <path fill-rule="evenodd" d="M8.75 2.5A1.75 1.75 0 0 0 7 4.25a.75.75 0 0 1-.75.75h-2.5c-.69 0-1.25.56-1.25 1.25v1.837a3.251 3.251 0 0 1 0 6.326v1.837c0 .69.56 1.25 1.25 1.25h1.837a3.251 3.251 0 0 1 6.326 0h1.837c.69 0 1.25-.56 1.25-1.25v-2.5a.75.75 0 0 1 .75-.75 1.75 1.75 0 1 0 0-3.5.75.75 0 0 1-.75-.75v-2.5C15 5.56 14.44 5 13.75 5h-2.5a.75.75 0 0 1-.75-.75A1.75 1.75 0 0 0 8.75 2.5Zm-3.163 1a3.251 3.251 0 0 1 6.326 0h1.837a2.75 2.75 0 0 1 2.75 2.75v1.837a3.251 3.251 0 0 1 0 6.326v1.837A2.75 2.75 0 0 1 13.75 19h-2.5a.75.75 0 0 1-.75-.75 1.75 1.75 0 1 0-3.5 0 .75.75 0 0 1-.75.75h-2.5A2.75 2.75 0 0 1 1 16.25v-2.5a.75.75 0 0 1 .75-.75 1.75 1.75 0 1 0 0-3.5.75.75 0 0 1-.75-.75v-2.5A2.75 2.75 0 0 1 3.75 3.5h1.837Z" clip-rule="evenodd"/>
</svg>
