<svg xmlns="http://www.w3.org/2000/svg" width="20" height="20" fill="currentColor">
  <path fill-rule="evenodd" d="M1.152 3.297a.75.75 0 0 1 1.05-.145l16.5 12.5a.75.75 0 1 1-.905 1.196l-2.673-2.025C13.736 15.988 11.972 17 10 17c-2.034 0-3.846-1.078-5.246-2.28-1.412-1.214-2.5-2.636-3.103-3.502l-.03-.043c-.145-.207-.305-.437-.384-.754a1.878 1.878 0 0 1 0-.842c.079-.317.24-.547.384-.754l.03-.043a20.41 20.41 0 0 1 2.11-2.567L1.297 4.348a.75.75 0 0 1-.145-1.05Zm3.816 3.831a18.752 18.752 0 0 0-2.085 2.51 3.986 3.986 0 0 0-.165.247.195.195 0 0 0-.024.053l-.002.014a.466.466 0 0 0 .002.11c.002.009.005.02.024.053.03.05.073.114.165.247.566.815 1.572 2.123 2.849 3.22C7.02 14.688 8.492 15.5 10 15.5c1.368 0 2.702-.667 3.893-1.61l-2.03-1.538a3 3 0 0 1-4.631-3.508L4.967 7.127ZM8.51 9.813a1.5 1.5 0 0 0 2.072 1.57L8.51 9.813ZM10 4.5c-.605 0-1.204.13-1.793.36a.75.75 0 0 1-.547-1.397A6.404 6.404 0 0 1 10 3c2.034 0 3.846 1.078 5.246 2.28 1.412 1.214 2.5 2.636 3.103 3.502l.03.043c.145.207.305.437.384.754a1.88 1.88 0 0 1 0 .842c-.079.317-.24.547-.385.755l-.03.042c-.111.161-.24.341-.383.534a.75.75 0 0 1-1.204-.894c.133-.18.252-.347.356-.496.092-.133.136-.196.165-.247a.2.2 0 0 0 .024-.053s.002-.006.002-.014a.456.456 0 0 0 0-.096c0-.008-.002-.014-.002-.014a.199.199 0 0 0-.024-.053 3.96 3.96 0 0 0-.165-.247c-.566-.815-1.572-2.123-2.849-3.22C12.98 5.312 11.508 4.5 10 4.5Z" clip-rule="evenodd"/>
</svg>
