<svg xmlns="http://www.w3.org/2000/svg" width="20" height="20" fill="currentColor">
  <path fill-rule="evenodd" d="M5.614 6.424C4.306 7.522 3.276 8.83 2.696 9.644a3.979 3.979 0 0 0-.168.247.19.19 0 0 0-.024.05l-.002.013a.44.44 0 0 0 .002.105.19.19 0 0 0 .024.05c.03.05.074.113.168.246.58.815 1.61 2.123 2.918 3.22C6.933 14.684 8.444 15.5 10 15.5s3.067-.817 4.386-1.924c1.308-1.098 2.338-2.406 2.918-3.22.094-.134.138-.197.168-.247a.19.19 0 0 0 .024-.05l.002-.013a.42.42 0 0 0 0-.092l-.002-.013a.19.19 0 0 0-.024-.05 3.993 3.993 0 0 0-.168-.246c-.58-.815-1.61-2.123-2.918-3.22C13.067 5.316 11.556 4.5 10 4.5s-3.067.817-4.386 1.924Zm-.965-1.149C6.082 4.073 7.93 3 10 3s3.918 1.073 5.35 2.275c1.445 1.212 2.56 2.634 3.176 3.5l.03.043c.148.207.314.438.395.757.066.26.066.59 0 .85-.081.319-.247.55-.395.757l-.03.043c-.617.866-1.731 2.287-3.175 3.5C13.918 15.927 12.07 17 10 17s-3.918-1.073-5.35-2.275c-1.445-1.213-2.56-2.634-3.176-3.5a8.876 8.876 0 0 0-.03-.043c-.149-.207-.314-.438-.395-.757a1.853 1.853 0 0 1 0-.85c.081-.319.246-.55.395-.757l.03-.043c.617-.866 1.731-2.288 3.175-3.5ZM10 8.5a1.5 1.5 0 1 0 0 3 1.5 1.5 0 0 0 0-3ZM7 10a3 3 0 1 1 6 0 3 3 0 0 1-6 0Z" clip-rule="evenodd"/>
</svg>
