<svg xmlns="http://www.w3.org/2000/svg" width="20" height="20" fill="currentColor">
  <g clip-path="url(#a)">
    <path fill-rule="evenodd" d="M5.75 2.5c-.69 0-1.25.56-1.25 1.25v12.5c0 .69.56 1.25 1.25 1.25h3.5a.75.75 0 0 1 0 1.5h-3.5A2.75 2.75 0 0 1 3 16.25V3.75A2.75 2.75 0 0 1 5.75 1h5.5a.75.75 0 0 1 .53.22l5 5c.141.14.22.331.22.53v2.5a.75.75 0 0 1-1.5 0V7.5h-4.25a.75.75 0 0 1-.75-.75V2.5H5.75ZM12 3.56 14.44 6H12V3.56Zm7.765 9.645a.75.75 0 0 1 .03 1.06l-4.25 4.5a.75.75 0 0 1-1.102-.013l-2.25-2.5a.75.75 0 1 1 1.114-1.004l1.706 1.896 3.692-3.909a.75.75 0 0 1 1.06-.03Z" clip-rule="evenodd"/>
  </g>
  <defs>
    <clipPath id="a">
      <path d="M0 0h20v20H0z"/>
    </clipPath>
  </defs>
</svg>
