<svg xmlns="http://www.w3.org/2000/svg" width="20" height="20" fill="currentColor">
  <path fill-rule="evenodd" d="M5.75 2.5c-.69 0-1.25.56-1.25 1.25v12.5c0 .69.56 1.25 1.25 1.25h3.5a.75.75 0 0 1 0 1.5h-3.5A2.75 2.75 0 0 1 3 16.25V3.75A2.75 2.75 0 0 1 5.75 1h5.5a.75.75 0 0 1 .53.22l5 5c.141.14.22.331.22.53v2.5a.75.75 0 0 1-1.5 0V7.5h-4.25a.75.75 0 0 1-.75-.75V2.5H5.75ZM12 3.56 14.44 6H12V3.56ZM16 12a.75.75 0 0 1 .75.75v2.5h2.5a.75.75 0 0 1 0 1.5h-2.5v2.5a.75.75 0 0 1-1.5 0v-2.5h-2.5a.75.75 0 0 1 0-1.5h2.5v-2.5A.75.75 0 0 1 16 12Z" clip-rule="evenodd"/>
</svg>
