<svg xmlns="http://www.w3.org/2000/svg" width="20" height="20" fill="currentColor">
  <path fill-rule="evenodd" d="M5.75 2.5c-.69 0-1.25.56-1.25 1.25v12.5c0 .69.56 1.25 1.25 1.25h3.5a.75.75 0 0 1 0 1.5h-3.5A2.75 2.75 0 0 1 3 16.25V3.75A2.75 2.75 0 0 1 5.75 1h5.5a.75.75 0 0 1 .53.22l5 5c.141.14.22.331.22.53v2.5a.75.75 0 0 1-1.5 0V7.5h-4.25a.75.75 0 0 1-.75-.75V2.5H5.75ZM12 3.56 14.44 6H12V3.56Zm6.286 10.154a.73.73 0 0 0-1.033 0L13.5 17.467V18.5h1.033l3.753-3.753a.73.73 0 0 0 0-1.033Zm-2.094-1.06a2.23 2.23 0 1 1 3.155 3.154l-3.973 3.972a.75.75 0 0 1-.53.22H12.75a.75.75 0 0 1-.75-.75v-2.094a.75.75 0 0 1 .22-.53l3.972-3.973Z" clip-rule="evenodd"/>
</svg>
