<svg xmlns="http://www.w3.org/2000/svg" width="20" height="20" fill="currentColor">
  <path fill-rule="evenodd" d="M1 4.75A2.75 2.75 0 0 1 3.75 2h6a.75.75 0 0 1 .624.334L12.151 5h4.099A2.75 2.75 0 0 1 19 7.75v1.5a.75.75 0 0 1-1.5 0v-1.5c0-.69-.56-1.25-1.25-1.25H2.5v8.75c0 .69.56 1.25 1.25 1.25h5.5a.75.75 0 0 1 0 1.5h-5.5A2.75 2.75 0 0 1 1 15.25V4.75ZM2.5 5h7.849l-1-1.5H3.75c-.69 0-1.25.56-1.25 1.25V5Zm10.72 8.22a.75.75 0 0 1 1.06 0L16 14.94l1.72-1.72a.75.75 0 1 1 1.06 1.06L17.06 16l1.72 1.72a.75.75 0 1 1-1.06 1.06L16 17.06l-1.72 1.72a.75.75 0 1 1-1.06-1.06L14.94 16l-1.72-1.72a.75.75 0 0 1 0-1.06Z" clip-rule="evenodd"/>
</svg>
