<svg xmlns="http://www.w3.org/2000/svg" width="20" height="20" fill="currentColor">
  <g clip-path="url(#a)">
    <path fill-rule="evenodd" d="M1 4.75A2.75 2.75 0 0 1 3.75 2h6a.75.75 0 0 1 .624.334L12.151 5h4.099A2.75 2.75 0 0 1 19 7.75v1.5a.75.75 0 0 1-1.5 0v-1.5c0-.69-.56-1.25-1.25-1.25H2.5v8.75c0 .69.56 1.25 1.25 1.25h5.5a.75.75 0 0 1 0 1.5h-5.5A2.75 2.75 0 0 1 1 15.25V4.75ZM2.5 5h7.849l-1-1.5H3.75c-.69 0-1.25.56-1.25 1.25V5Zm17.265 8.205a.75.75 0 0 1 .03 1.06l-4.25 4.5a.75.75 0 0 1-1.102-.013l-2.25-2.5a.75.75 0 1 1 1.114-1.004l1.706 1.896 3.692-3.909a.75.75 0 0 1 1.06-.03Z" clip-rule="evenodd"/>
  </g>
  <defs>
    <clipPath id="a">
      <path d="M0 0h20v20H0z"/>
    </clipPath>
  </defs>
</svg>
