<svg xmlns="http://www.w3.org/2000/svg" width="20" height="20" fill="currentColor">
  <path fill-rule="evenodd" d="M1 3.25a.75.75 0 0 1 .75-.75h16.5a.75.75 0 0 1 0 1.5H1.75A.75.75 0 0 1 1 3.25Zm.409 2.832a.75.75 0 0 1 .78.06l4.5 3.25a.75.75 0 0 1 0 1.216l-4.5 3.25A.75.75 0 0 1 1 13.25v-6.5a.75.75 0 0 1 .409-.668ZM2.5 8.217v3.566L4.969 10 2.5 8.217ZM9 7.75A.75.75 0 0 1 9.75 7h8.5a.75.75 0 0 1 0 1.5h-8.5A.75.75 0 0 1 9 7.75Zm0 4.5a.75.75 0 0 1 .75-.75h8.5a.75.75 0 0 1 0 1.5h-8.5a.75.75 0 0 1-.75-.75Zm-8 4.5a.75.75 0 0 1 .75-.75h16.5a.75.75 0 0 1 0 1.5H1.75a.75.75 0 0 1-.75-.75Z" clip-rule="evenodd"/>
</svg>
