<svg xmlns="http://www.w3.org/2000/svg" width="20" height="20" fill="currentColor">
  <path fill-rule="evenodd" d="M4.491 1.199a.75.75 0 0 1 1.018 0l3.25 3A.75.75 0 1 1 7.74 5.3L5.75 3.463v13.074l1.991-1.838A.75.75 0 1 1 8.76 15.8l-3.25 3a.75.75 0 0 1-1.018 0l-3.25-3a.75.75 0 1 1 1.018-1.1l1.991 1.838V3.463L2.259 5.301A.75.75 0 1 1 1.24 4.2l3.25-3ZM11 4.75a.75.75 0 0 1 .75-.75h6.5a.75.75 0 0 1 0 1.5h-6.5a.75.75 0 0 1-.75-.75ZM11 10a.75.75 0 0 1 .75-.75h6.5a.75.75 0 0 1 0 1.5h-6.5A.75.75 0 0 1 11 10Zm0 5.25a.75.75 0 0 1 .75-.75h6.5a.75.75 0 0 1 0 1.5h-6.5a.75.75 0 0 1-.75-.75Z" clip-rule="evenodd"/>
</svg>
