<svg xmlns="http://www.w3.org/2000/svg" width="20" height="20" fill="currentColor">
  <path fill-rule="evenodd" d="M3.75 2.5c-.69 0-1.25.56-1.25 1.25v2.5a.75.75 0 0 1-1.5 0v-2.5A2.75 2.75 0 0 1 3.75 1h2.5a.75.75 0 0 1 0 1.5h-2.5ZM13 1.75a.75.75 0 0 1 .75-.75h2.5A2.75 2.75 0 0 1 19 3.75v2.5a.75.75 0 0 1-1.5 0v-2.5c0-.69-.56-1.25-1.25-1.25h-2.5a.75.75 0 0 1-.75-.75ZM1.75 13a.75.75 0 0 1 .75.75v2.5c0 .69.56 1.25 1.25 1.25h2.5a.75.75 0 0 1 0 1.5h-2.5A2.75 2.75 0 0 1 1 16.25v-2.5a.75.75 0 0 1 .75-.75Zm16.5 0a.75.75 0 0 1 .75.75v2.5A2.75 2.75 0 0 1 16.25 19h-2.5a.75.75 0 0 1 0-1.5h2.5c.69 0 1.25-.56 1.25-1.25v-2.5a.75.75 0 0 1 .75-.75Z" clip-rule="evenodd"/>
</svg>
