<svg xmlns="http://www.w3.org/2000/svg" width="20" height="20" fill="currentColor">
  <path fill-rule="evenodd" d="M6.25 1a.75.75 0 0 1 .75.75v2.5A2.75 2.75 0 0 1 4.25 7h-2.5a.75.75 0 0 1 0-1.5h2.5c.69 0 1.25-.56 1.25-1.25v-2.5A.75.75 0 0 1 6.25 1Zm7.5 0a.75.75 0 0 1 .75.75v2.5c0 .69.56 1.25 1.25 1.25h2.5a.75.75 0 0 1 0 1.5h-2.5A2.75 2.75 0 0 1 13 4.25v-2.5a.75.75 0 0 1 .75-.75ZM1 13.75a.75.75 0 0 1 .75-.75h2.5A2.75 2.75 0 0 1 7 15.75v2.5a.75.75 0 0 1-1.5 0v-2.5c0-.69-.56-1.25-1.25-1.25h-2.5a.75.75 0 0 1-.75-.75Zm12 2A2.75 2.75 0 0 1 15.75 13h2.5a.75.75 0 0 1 0 1.5h-2.5c-.69 0-1.25.56-1.25 1.25v2.5a.75.75 0 0 1-1.5 0v-2.5Z" clip-rule="evenodd"/>
</svg>
