<svg xmlns="http://www.w3.org/2000/svg" width="20" height="20" fill="currentColor">
  <path fill-rule="evenodd" d="M9.482 3.663c.108-.423.26-.723.428-.907a.74.74 0 0 1 .59-.256 1 1 0 0 1 1 1 .75.75 0 0 0 1.5 0A2.5 2.5 0 0 0 10.5 1c-.705 0-1.277.284-1.697.744-.4.438-.639 1.007-.78 1.574a.758.758 0 0 0-.01.04L6.93 9H4.5a.75.75 0 0 0 0 1.5h2.14l-1.122 5.837c-.108.423-.26.723-.428.907a.74.74 0 0 1-.59.256 1 1 0 0 1-1-1 .75.75 0 0 0-1.5 0A2.5 2.5 0 0 0 4.5 19c.705 0 1.277-.284 1.697-.744.4-.438.639-1.007.78-1.574a.751.751 0 0 0 .01-.04l1.18-6.142h3.12a.25.25 0 0 1 .19.089L13.517 13l-2.34 2.766a.75.75 0 1 0 1.146.969L14.5 14.16l2.177 2.574a.75.75 0 0 0 1.146-.97L15.483 13l2.34-2.765a.75.75 0 1 0-1.146-.97L14.5 11.84l-1.878-2.22A1.75 1.75 0 0 0 11.286 9h-2.83l1.026-5.337Z" clip-rule="evenodd"/>
</svg>
