<svg xmlns="http://www.w3.org/2000/svg" width="20" height="20" fill="currentColor">
  <path fill-rule="evenodd" d="M2.537 9.25h3.476c.07-2.056.428-3.93.991-5.359a8.41 8.41 0 0 1 .437-.943A7.507 7.507 0 0 0 2.537 9.25ZM10 1a9 9 0 1 0 0 18 9 9 0 0 0 0-18Zm0 1.5c-.172 0-.414.085-.716.41-.303.325-.61.836-.884 1.531-.483 1.227-.816 2.907-.886 4.809h4.972c-.07-1.902-.403-3.582-.886-4.809-.274-.695-.58-1.206-.884-1.532-.302-.324-.544-.409-.716-.409Zm3.987 6.75c-.07-2.056-.428-3.93-.991-5.359a8.4 8.4 0 0 0-.437-.943 7.507 7.507 0 0 1 4.904 6.302h-3.476Zm-1.5 1.5H7.513c.07 1.902.403 3.582.886 4.809.273.695.58 1.206.884 1.531.302.325.544.41.716.41.172 0 .414-.085.716-.41.303-.325.61-.836.884-1.531.483-1.227.816-2.907.886-4.809Zm.072 6.302c.16-.292.305-.609.437-.944.563-1.428.92-3.302.991-5.358h3.476a7.507 7.507 0 0 1-4.904 6.302Zm-5.118 0a8.404 8.404 0 0 1-.437-.944c-.563-1.428-.92-3.302-.991-5.358H2.537a7.507 7.507 0 0 0 4.904 6.302Z" clip-rule="evenodd"/>
</svg>
