<svg xmlns="http://www.w3.org/2000/svg" width="20" height="20" fill="currentColor">
  <path fill-rule="evenodd" d="M10 2.5A6.5 6.5 0 0 0 3.5 9v2h.58c.535 0 .98 0 1.345.03.38.03.736.098 1.073.27A2.75 2.75 0 0 1 7.7 12.5c.172.338.24.694.27 1.074.03.365.03.81.03 1.345v1.117c0 .196 0 .347-.013.483a2.75 2.75 0 0 1-2.467 2.467 5.123 5.123 0 0 1-.483.013h-.074c-.196 0-.347 0-.483-.013a2.75 2.75 0 0 1-2.467-2.467C2 16.384 2 16.233 2 16.037V9a8 8 0 1 1 16 0v7.037c0 .196 0 .347-.013.483a2.75 2.75 0 0 1-2.467 2.467 5.122 5.122 0 0 1-.483.013h-.074c-.196 0-.347 0-.483-.013a2.75 2.75 0 0 1-2.467-2.467 5.122 5.122 0 0 1-.013-.483V14.92c0-.535 0-.98.03-1.345.03-.38.098-.736.27-1.073a2.751 2.751 0 0 1 1.2-1.202c.338-.172.694-.24 1.074-.27.365-.03.81-.03 1.345-.03h.58V9A6.5 6.5 0 0 0 10 2.5Zm6.5 10h-.55c-.572 0-.957 0-1.252.025-.288.023-.425.065-.516.111a1.25 1.25 0 0 0-.546.546c-.046.091-.088.228-.111.515-.024.296-.025.68-.025 1.253V16c0 .25 0 .32.006.372a1.25 1.25 0 0 0 1.121 1.122c.052.005.123.006.373.006s.32 0 .373-.006a1.25 1.25 0 0 0 1.121-1.122A4.72 4.72 0 0 0 16.5 16v-3.5Zm-13 0V16c0 .25 0 .32.006.372a1.25 1.25 0 0 0 1.121 1.122c.052.005.123.006.373.006s.32 0 .373-.006a1.25 1.25 0 0 0 1.121-1.122A4.72 4.72 0 0 0 6.5 16v-1.05c0-.572 0-.957-.025-1.252-.023-.288-.065-.425-.111-.516a1.25 1.25 0 0 0-.547-.546c-.09-.046-.227-.088-.514-.111-.296-.024-.68-.025-1.253-.025H3.5Z" clip-rule="evenodd"/>
</svg>
