<svg xmlns="http://www.w3.org/2000/svg" width="20" height="20" fill="currentColor">
  <path fill-rule="evenodd" d="M13.511 3.525c-.977.123-2.029.731-2.873 2.098a.75.75 0 0 1-1.276 0c-.844-1.367-1.896-1.975-2.873-2.098-.99-.125-2.006.23-2.804.993-1.58 1.522-1.58 4.088 0 5.61L10 16.208l6.314-6.08c1.58-1.522 1.581-4.088.001-5.61-.798-.762-1.815-1.118-2.804-.993Zm-.188-1.488c1.484-.188 2.94.357 4.03 1.397l.002.002c2.193 2.113 2.193 5.66 0 7.773L10.52 17.79a.75.75 0 0 1-1.04 0l-6.835-6.58c-2.193-2.113-2.193-5.66 0-7.773l.002-.002c1.09-1.04 2.546-1.585 4.03-1.397 1.21.153 2.371.783 3.323 1.912.952-1.129 2.113-1.76 3.323-1.912Z" clip-rule="evenodd"/>
</svg>
