<svg xmlns="http://www.w3.org/2000/svg" width="20" height="20" fill="currentColor">
  <path fill-rule="evenodd" d="M10 1a.75.75 0 0 1 .75.75v3.787l1.991-1.838A.75.75 0 1 1 13.76 4.8l-3.25 3a.75.75 0 0 1-1.018 0l-3.25-3A.75.75 0 0 1 7.26 3.7l1.99 1.837V1.75A.75.75 0 0 1 10 1Zm-9 9a.75.75 0 0 1 .75-.75h16.5a.75.75 0 0 1 0 1.5H1.75A.75.75 0 0 1 1 10Zm5.241 5.199 3.25-3a.75.75 0 0 1 1.018 0l3.25 3A.75.75 0 1 1 12.74 16.3l-1.991-1.838v3.787a.75.75 0 0 1-1.5 0v-3.787L7.258 16.3a.75.75 0 1 1-1.018-1.1Z" clip-rule="evenodd"/>
</svg>
