<svg xmlns="http://www.w3.org/2000/svg" width="20" height="20" fill="currentColor">
  <path fill-rule="evenodd" d="M3 1.75A.75.75 0 0 1 3.75 1h12.5a.75.75 0 0 1 0 1.5H15v1.719c0 .478-.125.949-.362 1.364l-2.17 3.797a1.25 1.25 0 0 0 0 1.24l2.17 3.797c.237.415.362.886.362 1.364V17.5h1.25a.75.75 0 0 1 0 1.5H3.75a.75.75 0 0 1 0-1.5H5v-1.719c0-.478.125-.949.362-1.364l2.17-3.797a1.25 1.25 0 0 0 0-1.24l-2.17-3.797A2.75 2.75 0 0 1 5 4.22V2.5H3.75A.75.75 0 0 1 3 1.75Zm3.5.75v1.719c0 .217.057.431.165.62l2.17 3.797a2.75 2.75 0 0 1 0 2.728l-2.17 3.797a1.25 1.25 0 0 0-.165.62V17.5h7v-1.719a1.25 1.25 0 0 0-.165-.62l-2.17-3.797a2.75 2.75 0 0 1 0-2.728l2.17-3.797a1.25 1.25 0 0 0 .165-.62V2.5h-7Z" clip-rule="evenodd"/>
</svg>
