<svg xmlns="http://www.w3.org/2000/svg" width="20" height="20" fill="currentColor">
  <path fill-rule="evenodd" d="M16.302 2.525c-.295-.024-.68-.025-1.252-.025h-7.3a.75.75 0 1 1 0-1.5h7.33c.535 0 .98 0 1.345.03.38.03.736.098 1.073.27A2.75 2.75 0 0 1 18.7 2.502c.172.337.24.693.27 1.073.03.365.03.81.03 1.345v7.34a.75.75 0 0 1-1.5 0V4.95c0-.572 0-.957-.025-1.253-.023-.287-.065-.424-.111-.514a1.25 1.25 0 0 0-.547-.547c-.09-.046-.227-.088-.515-.111ZM4.92 4h7.16c.535 0 .98 0 1.345.03.38.03.736.098 1.073.27A2.75 2.75 0 0 1 15.7 5.502c.172.337.24.693.27 1.073.03.365.03.81.03 1.345v7.161c0 .534 0 .98-.03 1.344-.03.38-.098.736-.27 1.073a2.751 2.751 0 0 1-1.2 1.202c-.338.172-.694.24-1.074.27-.365.03-.81.03-1.345.03H4.92c-.535 0-.98 0-1.345-.03-.38-.03-.736-.098-1.073-.27A2.75 2.75 0 0 1 1.3 17.5c-.172-.338-.24-.694-.27-1.074C1 16.06 1 15.615 1 15.08V7.92c0-.535 0-.98.03-1.345.03-.38.098-.736.27-1.073A2.75 2.75 0 0 1 2.502 4.3c.337-.172.693-.24 1.073-.27C3.94 4 4.385 4 4.92 4ZM2.5 14.846v.204c0 .572 0 .957.025 1.252.023.288.065.425.111.515.12.236.311.427.547.547.09.046.227.088.514.111.296.024.68.025 1.253.025h7.1c.572 0 .957 0 1.252-.025.288-.023.425-.065.516-.111a1.25 1.25 0 0 0 .546-.547c.046-.09.088-.227.111-.515.024-.295.025-.68.025-1.252v-.974l-3.007-2.806-1.753 1.594 1.104 1.427a.75.75 0 0 1-1.187.918L5.99 10.465l-3.49 4.38Zm6.32-3.173L6.593 8.79a.75.75 0 0 0-1.18-.008L2.5 12.439V7.95c0-.572 0-.957.025-1.253.023-.287.065-.424.111-.514a1.25 1.25 0 0 1 .547-.547c.09-.046.227-.088.514-.111.296-.024.68-.025 1.253-.025h7.1c.572 0 .957 0 1.252.025.288.023.425.065.516.111.235.12.426.311.546.547.046.09.088.227.111.514.024.296.025.68.025 1.253v4.074l-2.488-2.322a.75.75 0 0 0-1.017-.007L8.82 11.673Z" clip-rule="evenodd"/>
</svg>
