<svg xmlns="http://www.w3.org/2000/svg" width="20" height="20" fill="currentColor">
  <g clip-path="url(#a)">
    <path fill-rule="evenodd" d="M18.286 1.714a.73.73 0 0 0-1.033 0L13.5 5.467V6.5h1.033l3.753-3.753a.73.73 0 0 0 0-1.033ZM16.192.654a2.23 2.23 0 1 1 3.155 3.154L15.374 7.78a.75.75 0 0 1-.53.22H12.75a.75.75 0 0 1-.75-.75V5.156a.75.75 0 0 1 .22-.53L16.192.653ZM1 3.75A2.75 2.75 0 0 1 3.75 1h5.5a.75.75 0 0 1 0 1.5h-5.5c-.69 0-1.25.56-1.25 1.25v7.242l4.023-3.32a.75.75 0 0 1 1.018.058l3.08 3.204 3.463-2.308a.75.75 0 0 1 .928.076l3.75 3.5a.75.75 0 0 1 .238.548v3.5A2.75 2.75 0 0 1 16.25 19H3.75A2.75 2.75 0 0 1 1 16.25V3.75Zm10.678 8.283 2.113 2.197a.75.75 0 1 1-1.082 1.04l-5.768-6L2.5 12.937v3.313c0 .69.56 1.25 1.25 1.25h12.5c.69 0 1.25-.56 1.25-1.25v-3.174l-3.078-2.873-2.744 1.83Z" clip-rule="evenodd"/>
  </g>
  <defs>
    <clipPath id="a">
      <path d="M0 0h20v20H0z"/>
    </clipPath>
  </defs>
</svg>
