<svg xmlns="http://www.w3.org/2000/svg" width="20" height="20" fill="currentColor">
  <path fill-rule="evenodd" d="M2.644 4.083A2.75 2.75 0 0 1 5.312 2h9.376a2.75 2.75 0 0 1 2.668 2.083l1.622 6.485c.014.06.022.12.022.182v4.5A2.75 2.75 0 0 1 16.25 18H3.75A2.75 2.75 0 0 1 1 15.25v-4.5a.75.75 0 0 1 .022-.182l1.622-6.485ZM5.312 3.5a1.25 1.25 0 0 0-1.213.947L2.71 10h1.803a2.75 2.75 0 0 1 2.46 1.52l.144.289a1.25 1.25 0 0 0 1.118.691h3.528a1.25 1.25 0 0 0 1.118-.691l.144-.289a2.75 2.75 0 0 1 2.46-1.52h1.803L15.9 4.447a1.25 1.25 0 0 0-1.213-.947H5.312Zm12.188 8h-2.014a1.25 1.25 0 0 0-1.118.691l-.144.289a2.75 2.75 0 0 1-2.46 1.52H8.236a2.75 2.75 0 0 1-2.46-1.52l-.144-.289a1.25 1.25 0 0 0-1.118-.691H2.5v3.75c0 .69.56 1.25 1.25 1.25h12.5c.69 0 1.25-.56 1.25-1.25V11.5Z" clip-rule="evenodd"/>
</svg>
