<svg xmlns="http://www.w3.org/2000/svg" width="20" height="20" fill="currentColor">
  <path fill-rule="evenodd" d="M13.75 2.5a3.75 3.75 0 0 0-3.65 4.613.75.75 0 0 1-.2.702l-7.18 7.197a.75.75 0 0 0-.22.53V17.5h2.01c.199 0 .39-.079.53-.22l.21-.21V15a.75.75 0 0 1 .75-.75h2.064l.186-.186V12a.75.75 0 0 1 .75-.75h2.059l1.143-1.145a.75.75 0 0 1 .7-.201A3.75 3.75 0 1 0 13.75 2.5ZM8.5 6.25a5.25 5.25 0 1 1 4.484 5.194L11.9 12.53a.75.75 0 0 1-.53.22H9.75v1.624a.75.75 0 0 1-.22.53l-.624.626a.75.75 0 0 1-.53.22H6.75v1.63a.75.75 0 0 1-.22.53l-.428.43A2.25 2.25 0 0 1 4.51 19H2.25C1.56 19 1 18.44 1 17.75v-2.208c0-.596.236-1.168.657-1.59L8.56 7.036a5.286 5.286 0 0 1-.06-.786Zm4.5 0a.75.75 0 0 1 .75-.75h.5a.75.75 0 0 1 0 1.5h-.5a.75.75 0 0 1-.75-.75Z" clip-rule="evenodd"/>
</svg>
