<svg xmlns="http://www.w3.org/2000/svg" width="20" height="20" fill="currentColor">
  <g clip-path="url(#a)">
    <path fill-rule="evenodd" d="M3.92 3h12.16c.535 0 .98 0 1.345.03.38.03.736.098 1.073.27A2.75 2.75 0 0 1 19.7 4.502c.172.337.24.693.27 1.073.03.365.03.81.03 1.345v6.16c0 .535 0 .98-.03 1.345-.03.38-.098.736-.27 1.073a2.751 2.751 0 0 1-1.2 1.202c-.338.172-.694.24-1.074.27-.365.03-.81.03-1.345.03H3.92c-.535 0-.98 0-1.345-.03-.38-.03-.736-.098-1.073-.27A2.75 2.75 0 0 1 .3 15.5c-.172-.338-.24-.694-.27-1.074C0 14.06 0 13.615 0 13.08V6.92c0-.535 0-.98.03-1.345.03-.38.098-.736.27-1.073A2.75 2.75 0 0 1 1.502 3.3c.337-.172.693-.24 1.073-.27C2.94 3 3.385 3 3.92 3ZM2.697 4.525c-.287.023-.424.065-.514.111a1.25 1.25 0 0 0-.547.547c-.046.09-.088.227-.111.514-.024.296-.025.68-.025 1.253v6.1c0 .572 0 .957.025 1.252.023.288.065.425.111.516.12.235.311.426.547.546.09.046.227.088.514.111.296.024.68.025 1.253.025h12.1c.572 0 .957 0 1.252-.025.288-.023.425-.065.515-.111a1.25 1.25 0 0 0 .547-.546c.046-.091.088-.228.111-.515.024-.296.025-.68.025-1.253v-6.1c0-.572 0-.957-.025-1.253-.023-.287-.065-.424-.111-.514a1.25 1.25 0 0 0-.547-.547c-.09-.046-.227-.088-.515-.111-.295-.024-.68-.025-1.252-.025H3.95c-.572 0-.957 0-1.253.025ZM3 7.25a.75.75 0 0 1 .75-.75h.5a.75.75 0 0 1 0 1.5h-.5A.75.75 0 0 1 3 7.25Zm4 0a.75.75 0 0 1 .75-.75h.5a.75.75 0 1 1 0 1.5h-.5A.75.75 0 0 1 7 7.25Zm4 0a.75.75 0 0 1 .75-.75h.5a.75.75 0 0 1 0 1.5h-.5a.75.75 0 0 1-.75-.75Zm4 0a.75.75 0 0 1 .75-.75h.5a.75.75 0 0 1 0 1.5h-.5a.75.75 0 0 1-.75-.75Zm-12 3a.75.75 0 0 1 .75-.75h.5a.75.75 0 0 1 0 1.5h-.5a.75.75 0 0 1-.75-.75Zm4 0a.75.75 0 0 1 .75-.75h.5a.75.75 0 1 1 0 1.5h-.5a.75.75 0 0 1-.75-.75Zm4 0a.75.75 0 0 1 .75-.75h.5a.75.75 0 0 1 0 1.5h-.5a.75.75 0 0 1-.75-.75Zm4 0a.75.75 0 0 1 .75-.75h.5a.75.75 0 0 1 0 1.5h-.5a.75.75 0 0 1-.75-.75Zm-9 3.5a.75.75 0 0 1 .75-.75h6.5a.75.75 0 0 1 0 1.5h-6.5a.75.75 0 0 1-.75-.75Z" clip-rule="evenodd"/>
  </g>
  <defs>
    <clipPath id="a">
      <path d="M0 0h20v20H0z"/>
    </clipPath>
  </defs>
</svg>
