<svg xmlns="http://www.w3.org/2000/svg" width="20" height="20" fill="currentColor">
  <path fill-rule="evenodd" d="M13.794 5.548c-.15-.042-.323-.048-.956-.048H5c-.581 0-.973 0-1.275.025-.293.023-.435.066-.53.113a1.266 1.266 0 0 0-.558.549c-.047.09-.09.225-.113.511-.024.296-.025.68-.025 1.252v4.1c0 .573 0 .956.025 1.252.024.286.066.422.113.511.12.234.315.427.558.549.095.047.237.09.53.113.302.024.694.025 1.275.025h7.837c.633 0 .806-.007.956-.048a1.3 1.3 0 0 0 .421-.206c.123-.09.232-.22.616-.716l2.337-3.02c.14-.181.222-.287.277-.37a.545.545 0 0 0 .047-.08c.01-.04.01-.08 0-.12a.55.55 0 0 0-.047-.08 7.325 7.325 0 0 0-.277-.37L14.83 6.47c-.384-.497-.493-.626-.615-.716a1.294 1.294 0 0 0-.422-.206Zm3.7 4.394-.002-.002.001.002Zm0 .116-.002.002.001-.002ZM12.923 4c.507 0 .9 0 1.273.103.328.092.636.242.91.444.311.23.55.54.857.936l.053.069 2.337 3.02.054.07c.213.272.44.563.532.905.08.297.08.61 0 .906-.093.342-.32.633-.532.905a23.03 23.03 0 0 0-.054.07l-2.337 3.02-.053.069c-.306.396-.546.706-.857.936a2.795 2.795 0 0 1-.91.444c-.373.104-.766.103-1.272.103H4.97c-.544 0-.996 0-1.365-.03-.384-.03-.743-.097-1.083-.268a2.766 2.766 0 0 1-1.218-1.2c-.175-.338-.243-.696-.275-1.076A17.55 17.55 0 0 1 1 12.08V7.919c0-.534 0-.98.03-1.345.032-.38.1-.738.275-1.077a2.766 2.766 0 0 1 1.218-1.2c.34-.17.699-.236 1.083-.267C3.976 4 4.427 4 4.971 4h7.954Z" clip-rule="evenodd"/>
</svg>
