<svg xmlns="http://www.w3.org/2000/svg" width="20" height="20" fill="currentColor">
  <path fill-rule="evenodd" d="M5.92 2h8.16c.535 0 .98 0 1.345.03.38.03.736.098 1.073.27A2.75 2.75 0 0 1 17.7 3.502c.172.337.24.693.27 1.073.03.365.03.81.03 1.345V13h.25a.75.75 0 0 1 .75.75v.33c0 .535 0 .98-.03 1.345-.03.38-.098.736-.27 1.073a2.751 2.751 0 0 1-1.2 1.202c-.338.172-.694.24-1.074.27-.365.03-.81.03-1.345.03H4.92c-.535 0-.98 0-1.345-.03-.38-.03-.736-.098-1.073-.27A2.75 2.75 0 0 1 1.3 16.5c-.172-.338-.24-.694-.27-1.074C1 15.06 1 14.615 1 14.08v-.33a.75.75 0 0 1 .75-.75H2V5.92c0-.535 0-.98.03-1.345.03-.38.098-.736.27-1.073A2.75 2.75 0 0 1 3.502 2.3c.337-.172.693-.24 1.073-.27C4.94 2 5.385 2 5.92 2ZM2.5 14.5c.002.336.008.592.025.803.023.287.065.424.111.514.12.236.311.427.547.547.09.046.227.088.514.111.296.024.68.025 1.253.025h10.1c.572 0 .957 0 1.252-.025.288-.023.425-.065.515-.111a1.25 1.25 0 0 0 .547-.546c.046-.091.088-.228.111-.515.017-.211.023-.467.024-.803h-3.348a.934.934 0 0 0-.777.416A2.434 2.434 0 0 1 11.349 16H8.65a2.434 2.434 0 0 1-2.025-1.084.934.934 0 0 0-.777-.416H2.5Zm14-1.5h-2.349c-.813 0-1.574.407-2.025 1.084a.934.934 0 0 1-.777.416H8.65a.934.934 0 0 1-.777-.416A2.434 2.434 0 0 0 5.849 13H3.5V5.95c0-.572 0-.957.025-1.253.023-.287.065-.424.111-.514a1.25 1.25 0 0 1 .547-.547c.09-.046.227-.088.514-.111.296-.024.68-.025 1.253-.025h8.1c.572 0 .957 0 1.252.025.288.023.425.065.516.111.235.12.426.311.546.547.046.09.088.227.111.514.024.296.025.68.025 1.253V13Z" clip-rule="evenodd"/>
</svg>
