<svg xmlns="http://www.w3.org/2000/svg" width="20" height="20" fill="currentColor">
  <path fill-rule="evenodd" d="M10.236 2.772a1.25 1.25 0 0 0-.472 0c-.152.03-.31.103-.886.4L3.388 6l5.49 2.828c.577.297.734.37.886.4.156.03.316.03.472 0 .152-.03.31-.103.886-.4L16.612 6l-5.49-2.828c-.577-.297-.734-.37-.886-.4ZM9.48 1.3a2.75 2.75 0 0 1 1.04 0c.39.076.75.261 1.209.498l.08.041 6.784 3.495a.75.75 0 0 1 0 1.334l-6.784 3.495-.08.041c-.458.237-.818.422-1.209.498a2.749 2.749 0 0 1-1.04 0c-.39-.076-.75-.261-1.209-.498a20.95 20.95 0 0 0-.08-.041L1.407 6.667a.75.75 0 0 1 0-1.334L8.19 1.838l.08-.041c.458-.237.818-.422 1.209-.498ZM1.083 9.657a.75.75 0 0 1 1.01-.324l6.785 3.495c.577.297.734.37.886.4.156.03.316.03.472 0 .152-.03.31-.103.886-.4l6.785-3.495a.75.75 0 0 1 .686 1.334l-6.784 3.495-.08.041c-.458.237-.818.422-1.209.498a2.749 2.749 0 0 1-1.04 0c-.39-.076-.75-.261-1.209-.498a21.718 21.718 0 0 0-.08-.041l-6.784-3.495a.75.75 0 0 1-.324-1.01Zm0 4a.75.75 0 0 1 1.01-.324l6.785 3.495c.577.297.734.37.886.4.156.03.316.03.472 0 .152-.03.31-.103.886-.4l6.785-3.495a.75.75 0 1 1 .686 1.334l-6.784 3.495-.08.041c-.458.236-.818.422-1.209.498a2.749 2.749 0 0 1-1.04 0c-.39-.076-.75-.262-1.209-.498a20.94 20.94 0 0 0-.08-.041l-6.784-3.495a.75.75 0 0 1-.324-1.01Z" clip-rule="evenodd"/>
</svg>
