<svg xmlns="http://www.w3.org/2000/svg" width="20" height="20" fill="currentColor">
  <path fill-rule="evenodd" d="M14.405 2.504a9.607 9.607 0 0 0-.398-.004h-.178a3.25 3.25 0 0 0-2.291 1.023L9.28 5.78c-.165.166-.229.23-.278.284a3.25 3.25 0 0 0 0 4.372c.049.054.113.118.278.284l.25.25a.75.75 0 1 1-1.06 1.06l-.267-.266a10.013 10.013 0 0 1-.311-.319 4.75 4.75 0 0 1 0-6.39c.076-.084.168-.175.311-.32l2.274-2.273.007-.007c.063-.063.104-.104.145-.143A4.75 4.75 0 0 1 13.998 1h.033c.203 0 .332 0 .445.005a4.75 4.75 0 0 1 4.519 4.519c.005.113.005.242.005.446v.032l-.001.204a4.75 4.75 0 0 1-1.455 3.31l-.006.007-1.258 1.257a.75.75 0 1 1-1.06-1.06l1.257-1.258.125-.126A3.25 3.25 0 0 0 17.5 6.17l.001-.178c0-.234 0-.325-.004-.398a3.25 3.25 0 0 0-3.091-3.091ZM10.47 9.03a.75.75 0 0 1 1.06-1.06l.267.266c.143.144.235.235.311.319a4.75 4.75 0 0 1 0 6.39c-.076.084-.168.175-.311.32l-2.274 2.273-.007.007c-.063.063-.104.104-.145.143a4.75 4.75 0 0 1-3.165 1.31C6.15 19 6.092 19 6.002 19H5.97c-.204 0-.333 0-.446-.005a4.75 4.75 0 0 1-4.519-4.519A9.965 9.965 0 0 1 1 14.03v-.032l.001-.204a4.75 4.75 0 0 1 1.311-3.165c.04-.041.08-.082.144-.145L3.72 9.22a.75.75 0 0 1 1.06 1.06l-1.257 1.258a3.25 3.25 0 0 0-1.023 2.47c0 .233 0 .324.004.397a3.25 3.25 0 0 0 3.091 3.091c.073.004.164.004.398.004h.178a3.25 3.25 0 0 0 2.291-1.023l2.258-2.257c.165-.166.229-.23.278-.284a3.25 3.25 0 0 0 0-4.372 9.8 9.8 0 0 0-.278-.284l-.25-.25Z" clip-rule="evenodd"/>
</svg>
