<svg xmlns="http://www.w3.org/2000/svg" width="20" height="20" fill="currentColor">
  <path fill-rule="evenodd" d="M14.405 2.504a9.607 9.607 0 0 0-.398-.004h-.178a3.25 3.25 0 0 0-2.291 1.023L10.28 4.78a.75.75 0 1 1-1.06-1.06l1.264-1.264A4.75 4.75 0 0 1 13.998 1h.033c.203 0 .332 0 .445.005a4.75 4.75 0 0 1 4.519 4.519c.005.113.005.242.005.445v.033l-.001.204a4.75 4.75 0 0 1-1.311 3.165c-.04.041-.08.082-.144.145L16.28 10.78a.75.75 0 1 1-1.06-1.06l1.257-1.258.125-.126A3.25 3.25 0 0 0 17.5 6.17l.001-.178c0-.234 0-.325-.004-.398a3.25 3.25 0 0 0-3.091-3.091ZM7.25 2a.75.75 0 0 1 .75.75v4.5a.75.75 0 0 1-.75.75h-4.5a.75.75 0 0 1 0-1.5H6.5V2.75A.75.75 0 0 1 7.25 2ZM4.78 9.22a.75.75 0 0 1 0 1.06l-1.257 1.258-.125.126a3.25 3.25 0 0 0-.898 2.343c0 .234 0 .325.004.398a3.25 3.25 0 0 0 3.091 3.091c.073.004.164.004.398.004h.178a3.25 3.25 0 0 0 2.291-1.023L9.72 15.22a.75.75 0 1 1 1.06 1.06l-1.264 1.264a4.75 4.75 0 0 1-3.31 1.454C6.15 19 6.092 19 6.002 19H5.97c-.203 0-.332 0-.445-.005a4.75 4.75 0 0 1-4.519-4.519A9.965 9.965 0 0 1 1 14.03v-.032l.001-.204a4.75 4.75 0 0 1 1.454-3.31l.007-.007L3.72 9.22a.75.75 0 0 1 1.06 0ZM12 12.75a.75.75 0 0 1 .75-.75h4.5a.75.75 0 0 1 0 1.5H13.5v3.75a.75.75 0 0 1-1.5 0v-4.5Z" clip-rule="evenodd"/>
</svg>
