<svg xmlns="http://www.w3.org/2000/svg" width="20" height="20" fill="currentColor">
  <path fill-rule="evenodd" d="M2 10a.75.75 0 0 1 .75-.75h6.787L7.699 7.259A.75.75 0 1 1 8.8 6.24l3 3.25a.75.75 0 0 1 0 1.018l-3 3.25a.75.75 0 1 1-1.1-1.018l1.838-1.991H2.75A.75.75 0 0 1 2 10Zm8 8.25a.75.75 0 0 1 .75-.75h4.5c.69 0 1.25-.56 1.25-1.25V3.75c0-.69-.56-1.25-1.25-1.25h-4.5a.75.75 0 0 1 0-1.5h4.5A2.75 2.75 0 0 1 18 3.75v12.5A2.75 2.75 0 0 1 15.25 19h-4.5a.75.75 0 0 1-.75-.75Z" clip-rule="evenodd"/>
</svg>
