<svg xmlns="http://www.w3.org/2000/svg" width="20" height="20" fill="currentColor">
  <path fill-rule="evenodd" d="M8.181 2.302a1.922 1.922 0 0 1 3.638 0l5.055 13.996c.318.88.005 1.738-.582 2.238-.593.505-1.501.668-2.297.134l-3.771-2.531a.394.394 0 0 0-.448 0L6.005 18.67c-.796.534-1.704.37-2.296-.134-.588-.5-.9-1.358-.583-2.238L8.181 2.302Zm2.227.51c-.15-.416-.666-.416-.816 0L4.537 16.807a.514.514 0 0 0 .144.586c.145.124.318.145.488.03l3.771-2.53a1.895 1.895 0 0 1 2.12 0l3.771 2.53c.17.115.343.094.488-.03a.514.514 0 0 0 .144-.586L10.408 2.81Z" clip-rule="evenodd"/>
</svg>
