<svg xmlns="http://www.w3.org/2000/svg" width="20" height="20" fill="currentColor">
  <path fill-rule="evenodd" d="M14 1.75a.75.75 0 0 1 .75-.75h3.5a.75.75 0 0 1 .75.75v3.5a.75.75 0 0 1-1.5 0V3.56l-5.97 5.97a.75.75 0 1 1-1.06-1.06l5.97-5.97h-1.69a.75.75 0 0 1-.75-.75Zm-13 3A2.75 2.75 0 0 1 3.75 2H9a.75.75 0 0 1 0 1.5H3.75c-.69 0-1.25.56-1.25 1.25v11.5c0 .69.56 1.25 1.25 1.25h11.5c.69 0 1.25-.56 1.25-1.25V11a.75.75 0 0 1 1.5 0v5.25A2.75 2.75 0 0 1 15.25 19H3.75A2.75 2.75 0 0 1 1 16.25V4.75Z" clip-rule="evenodd"/>
</svg>
