<svg xmlns="http://www.w3.org/2000/svg" width="20" height="20" fill="currentColor">
  <path fill-rule="evenodd" d="M7.51 1h4.98c.341 0 .64 0 .885.02.256.02.533.067.796.21.373.205.67.535.819.942.107.294.098.58.065.829-.03.233-.093.51-.163.815l-.437 1.921c-.085.373-.103.466-.106.553-.003.092.005.184.024.274.019.086.054.177.202.532l1.974 4.718c.141.339.268.641.346.895.082.264.149.582.07.923a1.753 1.753 0 0 1-.803 1.094c-.285.173-.597.227-.882.25-.277.024-.621.024-1.018.024H10.75v3.25a.75.75 0 0 1-1.5 0V15H5.738c-.397 0-.741 0-1.018-.023-.285-.024-.597-.078-.882-.251a1.752 1.752 0 0 1-.802-1.094c-.08-.34-.013-.659.068-.923.08-.254.206-.556.347-.895l1.974-4.718c.149-.355.183-.446.202-.532.02-.09.027-.182.024-.274-.003-.087-.021-.18-.106-.553l-.43-1.891-.007-.03a9.132 9.132 0 0 1-.163-.815 1.716 1.716 0 0 1 .065-.829 1.77 1.77 0 0 1 .82-.941c.262-.144.539-.19.795-.211C6.869 1 7.169 1 7.51 1Zm-.961 1.547a.722.722 0 0 1 .197-.032c.177-.014.415-.015.792-.015h4.924c.377 0 .615 0 .792.015.145.012.191.03.198.032a.277.277 0 0 1 .124.13.69.69 0 0 1-.008.13c-.02.154-.067.362-.145.706l-.43 1.892a10.79 10.79 0 0 1-.013.052c-.066.294-.12.532-.13.778a2.63 2.63 0 0 0 .056.644c.052.24.146.465.264.746l.021.05 1.96 4.687c.16.38.257.614.312.79a.874.874 0 0 1 .036.154.262.262 0 0 1-.116.138.834.834 0 0 1-.228.038 12.8 12.8 0 0 1-.924.018H5.77c-.437 0-.717 0-.924-.018a.834.834 0 0 1-.229-.038.261.261 0 0 1-.115-.138.87.87 0 0 1 .036-.153c.055-.177.152-.412.311-.791L6.81 7.675l.021-.05c.117-.28.212-.506.264-.746a2.63 2.63 0 0 0 .056-.644c-.01-.246-.063-.484-.13-.778l-.013-.052-.43-1.892a8.811 8.811 0 0 1-.145-.706.737.737 0 0 1-.009-.13.278.278 0 0 1 .126-.13Zm-.126.13a.07.07 0 0 1 .001-.007s0 .007-.005.017a.19.19 0 0 1 .004-.01ZM4.501 13.306a.186.186 0 0 1-.005-.015.104.104 0 0 1 .004.024v-.01Zm.115.138Zm10.767 0h-.001.002Zm.116-.138.001.009s0-.01.004-.024a.158.158 0 0 1-.005.015Zm-1.923-10.63a.162.162 0 0 1 .005.011.092.092 0 0 1-.005-.017v.007Zm-.124-.129Z" clip-rule="evenodd"/>
</svg>
