<svg xmlns="http://www.w3.org/2000/svg" width="20" height="20" fill="currentColor">
  <path fill-rule="evenodd" d="M7.75 1a.75.75 0 0 1 .75.75V4h3V1.75a.75.75 0 0 1 1.5 0V4h1.25A2.75 2.75 0 0 1 17 6.75v2.5a6.75 6.75 0 0 1-6.25 6.732v2.268a.75.75 0 0 1-1.5 0v-2.268A6.75 6.75 0 0 1 3 9.25v-2.5A2.75 2.75 0 0 1 5.75 4H7V1.75A.75.75 0 0 1 7.75 1Zm-2 4.5c-.69 0-1.25.56-1.25 1.25v2.5c0 2.9 2.35 5.25 5.25 5.25h.5c2.9 0 5.25-2.35 5.25-5.25v-2.5c0-.69-.56-1.25-1.25-1.25h-8.5Z" clip-rule="evenodd"/>
</svg>
