<svg xmlns="http://www.w3.org/2000/svg" width="20" height="20" fill="currentColor">
  <path fill-rule="evenodd" d="M6.585 4.546c-.14-.04-.333-.046-1.025-.046h-.61c-.572 0-.957 0-1.253.025-.287.023-.424.065-.514.111a1.25 1.25 0 0 0-.547.547c-.046.09-.088.227-.111.514-.024.296-.025.68-.025 1.253v.1c0 .572 0 .957.025 1.253.023.287.065.424.111.514.12.236.311.427.547.547.09.046.227.088.514.111.296.024.68.025 1.253.025h.55a.75.75 0 0 1 .67 1.085L4.715 13.5h.735a7.002 7.002 0 0 0 .224-.003.25.25 0 0 0 .161-.1l.02-.033a6.82 6.82 0 0 0 .083-.166c.378-.754.55-1.1.697-1.451a11.25 11.25 0 0 0 .84-3.559c.026-.379.026-.766.026-1.61V6.44c0-.692-.007-.885-.046-1.025a1.25 1.25 0 0 0-.87-.87ZM5.66 3c.542 0 .961 0 1.325.1A2.75 2.75 0 0 1 8.9 5.014c.1.364.1.783.1 1.325v.272c0 .803 0 1.244-.03 1.68a12.75 12.75 0 0 1-.952 4.033c-.168.404-.365.798-.725 1.516l-.014.029-.016.032a2.643 2.643 0 0 1-.214.376 1.75 1.75 0 0 1-1.132.7 2.642 2.642 0 0 1-.433.023H3.5a.75.75 0 0 1-.67-1.085l1.458-2.917a9.845 9.845 0 0 1-.713-.028c-.38-.03-.736-.098-1.073-.27A2.75 2.75 0 0 1 1.3 9.498c-.172-.337-.24-.693-.27-1.073C1 8.06 1 7.615 1 7.08v-.16c0-.535 0-.98.03-1.345.03-.38.098-.736.27-1.073A2.75 2.75 0 0 1 2.502 3.3c.337-.172.693-.24 1.073-.27C3.94 3 4.385 3 4.92 3h.741Zm10.923 3.546c-.139-.04-.332-.046-1.024-.046h-.61c-.572 0-.957 0-1.252.025-.288.023-.425.065-.516.111a1.25 1.25 0 0 0-.546.547c-.046.09-.088.227-.111.514-.024.296-.025.68-.025 1.253v.1c0 .572 0 .957.025 1.252.023.288.065.425.111.516.12.235.311.426.546.546.091.046.228.088.515.111.296.024.68.025 1.253.025h.55a.75.75 0 0 1 .67 1.085L14.714 15.5h.736a7 7 0 0 0 .186-.001l.038-.002a.25.25 0 0 0 .161-.1l.02-.033a6.92 6.92 0 0 0 .083-.166c.377-.754.55-1.1.697-1.451.472-1.133.755-2.335.84-3.559.026-.379.026-.766.026-1.61V8.44c0-.692-.007-.885-.046-1.025a1.25 1.25 0 0 0-.87-.87ZM15.661 5c.542 0 .961 0 1.325.1A2.75 2.75 0 0 1 18.9 7.014c.1.364.1.783.1 1.325v.272c0 .803 0 1.244-.03 1.68a12.749 12.749 0 0 1-.952 4.033c-.168.404-.366.798-.725 1.517l-.014.028-.016.032a2.64 2.64 0 0 1-.214.376 1.75 1.75 0 0 1-1.132.7 2.642 2.642 0 0 1-.433.023H13.5a.75.75 0 0 1-.67-1.085l1.458-2.917a9.845 9.845 0 0 1-.713-.028c-.38-.03-.736-.098-1.073-.27a2.751 2.751 0 0 1-1.202-1.2c-.172-.338-.24-.694-.27-1.074C11 10.06 11 9.615 11 9.08v-.16c0-.535 0-.98.03-1.345.03-.38.098-.736.27-1.073A2.75 2.75 0 0 1 12.5 5.3c.338-.172.694-.24 1.074-.27.365-.03.81-.03 1.345-.03h.741Z" clip-rule="evenodd"/>
</svg>
