<svg xmlns="http://www.w3.org/2000/svg" width="20" height="20" fill="currentColor">
  <path fill-rule="evenodd" d="M10.836 1.281a.75.75 0 0 1-.117 1.055L9.889 3H10a6.981 6.981 0 0 1 4.95 2.05A6.981 6.981 0 0 1 17 10a6.98 6.98 0 0 1-.532 2.68.75.75 0 1 1-1.385-.575A5.48 5.48 0 0 0 15.5 10a5.481 5.481 0 0 0-1.61-3.89A5.481 5.481 0 0 0 10 4.5h-.112l.83.664a.75.75 0 1 1-.937 1.172l-2.5-2a.75.75 0 0 1 0-1.172l2.5-2a.75.75 0 0 1 1.055.117ZM4.51 6.915a.75.75 0 0 1 .406.98A5.481 5.481 0 0 0 4.5 10a5.482 5.482 0 0 0 1.61 3.89A5.483 5.483 0 0 0 10 15.5h.112l-.83-.664a.75.75 0 1 1 .937-1.172l2.5 2a.75.75 0 0 1 0 1.172l-2.5 2a.75.75 0 1 1-.938-1.172l.83-.664H10a6.983 6.983 0 0 1-4.95-2.05A6.981 6.981 0 0 1 3 10c0-.948.189-1.853.531-2.68a.75.75 0 0 1 .98-.405Z" clip-rule="evenodd"/>
</svg>
