<svg xmlns="http://www.w3.org/2000/svg" width="20" height="20" fill="currentColor">
  <path fill-rule="evenodd" d="M8.544 2.06A.75.75 0 0 1 9 2.75v3.294c1.656.118 3.944.432 5.915 1.741C17.252 9.338 19 12.182 19 17.25a.75.75 0 0 1-1.5 0c0-.538-.274-1.103-.871-1.693-.597-.59-1.455-1.142-2.459-1.633-1.668-.818-3.629-1.418-5.17-1.76v3.086a.75.75 0 0 1-1.27.54l-6.5-6.25a.75.75 0 0 1 0-1.08l6.5-6.25a.75.75 0 0 1 .814-.15Zm8.658 11.997c-.543-2.62-1.763-4.122-3.117-5.022-1.895-1.26-4.203-1.447-5.875-1.536a.75.75 0 0 1-.71-.749V4.512L2.832 9 7.5 13.488V11.25a.75.75 0 0 1 .88-.739c1.718.301 4.29 1.007 6.45 2.066.864.423 1.69.916 2.372 1.48Z" clip-rule="evenodd"/>
</svg>
