<svg xmlns="http://www.w3.org/2000/svg" width="20" height="20" fill="currentColor">
  <path fill-rule="evenodd" d="M10.246 2.526a1.195 1.195 0 0 0-.492 0c-.157.033-.322.116-.93.461L3.947 5.755c-.158.09-.248.141-.313.184a.401.401 0 0 0-.06.044.285.285 0 0 0-.06.103c-.005.02-.014.054-.014.458v3.144c0 2.309 1.16 4.444 3.052 5.653l3.008 1.92c.16.103.253.161.324.2a.467.467 0 0 0 .067.034.223.223 0 0 0 .098 0 .512.512 0 0 0 .067-.033 6.84 6.84 0 0 0 .324-.2l3.008-1.921c1.892-1.208 3.052-3.344 3.052-5.653V6.544c0-.404-.009-.439-.015-.458a.286.286 0 0 0-.059-.103.486.486 0 0 0-.06-.044 6.707 6.707 0 0 0-.313-.184l-4.877-2.768c-.608-.345-.773-.428-.93-.461Zm-.199 14.97.002-.001h-.002Zm-.094 0-.002-.001h.002ZM9.445 1.057a2.696 2.696 0 0 1 1.11 0c.416.087.795.303 1.275.576l.086.049 4.877 2.768.06.034c.24.135.494.279.689.495.168.187.294.408.371.646.088.274.088.567.087.849v3.214c0 2.808-1.41 5.426-3.745 6.917l-3.008 1.92-.061.04c-.242.155-.502.322-.796.39-.257.06-.523.06-.78 0-.295-.068-.555-.235-.796-.39l-.061-.04-3.008-1.92C3.41 15.115 2 12.496 2 9.688V6.475c0-.282-.001-.575.087-.849.077-.238.203-.46.371-.646.195-.216.45-.36.69-.495l.059-.034 4.877-2.768.086-.049c.48-.273.86-.489 1.275-.576Z" clip-rule="evenodd"/>
</svg>
