<svg xmlns="http://www.w3.org/2000/svg" width="20" height="20" fill="currentColor">
  <path fill-rule="evenodd" d="M1 5.75A2.75 2.75 0 0 1 3.75 3h12.5A2.75 2.75 0 0 1 19 5.75v8.5A2.75 2.75 0 0 1 16.25 17H3.75A2.75 2.75 0 0 1 1 14.25v-8.5Zm5.5 9.75h9.75c.69 0 1.25-.56 1.25-1.25v-8.5c0-.69-.56-1.25-1.25-1.25H6.5v11ZM5 4.5v11H3.75c-.69 0-1.25-.56-1.25-1.25v-8.5c0-.69.56-1.25 1.25-1.25H5Zm6.748 2.69a.75.75 0 0 1 .063 1.058l-.89 1.002h3.829a.75.75 0 0 1 0 1.5h-3.83l.89 1.002a.75.75 0 0 1-1.12.996l-2-2.25a.75.75 0 0 1 0-.996l2-2.25a.75.75 0 0 1 1.058-.063Z" clip-rule="evenodd"/>
</svg>
