<svg xmlns="http://www.w3.org/2000/svg" width="20" height="20" fill="currentColor">
  <path fill-rule="evenodd" d="M16.25 2.5a1.25 1.25 0 1 0 0 2.5 1.25 1.25 0 0 0 0-2.5Zm-2.646.5a2.751 2.751 0 1 1 0 1.5H1.75a.75.75 0 0 1 0-1.5h11.854ZM6 8.75a1.25 1.25 0 1 0 0 2.5 1.25 1.25 0 0 0 0-2.5Zm-2.646.5a2.751 2.751 0 0 1 5.292 0h9.604a.75.75 0 0 1 0 1.5H8.646a2.751 2.751 0 0 1-5.292 0H1.75a.75.75 0 0 1 0-1.5h1.604ZM11.75 15a1.25 1.25 0 1 0 0 2.5 1.25 1.25 0 0 0 0-2.5Zm-2.646.5a2.751 2.751 0 0 1 5.293 0h3.853a.75.75 0 0 1 0 1.5h-3.854a2.751 2.751 0 0 1-5.292 0H1.75a.75.75 0 0 1 0-1.5h7.354Z" clip-rule="evenodd"/>
</svg>
