<svg xmlns="http://www.w3.org/2000/svg" width="20" height="20" fill="currentColor">
  <path fill-rule="evenodd" d="M7 1.75A.75.75 0 0 1 7.75 1h4.5a.75.75 0 0 1 0 1.5h-1.5v.535a8 8 0 1 1-1.5 0V2.5h-1.5A.75.75 0 0 1 7 1.75Zm-2.22.47a.75.75 0 0 1 0 1.06l-2.5 2.5a.75.75 0 1 1-1.06-1.06l2.5-2.5a.75.75 0 0 1 1.06 0Zm10.44 0a.75.75 0 0 1 1.06 0l2.5 2.5a.75.75 0 0 1-1.06 1.06l-2.5-2.5a.75.75 0 0 1 0-1.06ZM10 4.5a6.5 6.5 0 1 0 0 13 6.5 6.5 0 0 0 0-13ZM9.75 6a.75.75 0 0 1 .75.75v3.75h1.75a.75.75 0 0 1 0 1.5h-2.5a.75.75 0 0 1-.75-.75v-4.5A.75.75 0 0 1 9.75 6Z" clip-rule="evenodd"/>
</svg>
