<svg xmlns="http://www.w3.org/2000/svg" width="20" height="20" fill="currentColor">
  <path fill-rule="evenodd" d="M8.324 2h3.352c.258 0 .494 0 .692.016.213.018.446.057.676.175.33.168.598.435.765.765.118.23.158.463.175.676.016.198.016.434.016.692V5h2.676c.258 0 .494 0 .692.016.213.018.446.057.677.175.329.168.596.435.764.765.118.23.157.463.175.676.016.198.016.434.016.692v4.352c0 .258 0 .494-.016.692a1.775 1.775 0 0 1-.175.676 1.75 1.75 0 0 1-.809.787v1.845c0 .258 0 .494-.016.692a1.775 1.775 0 0 1-.175.677 1.75 1.75 0 0 1-.765.764 1.77 1.77 0 0 1-.676.175c-.198.016-.434.016-.692.016H4.324c-.258 0-.494 0-.692-.016a1.775 1.775 0 0 1-.676-.175 1.75 1.75 0 0 1-.765-.765 1.774 1.774 0 0 1-.175-.676A9.053 9.053 0 0 1 2 15.676v-1.845a1.75 1.75 0 0 1-.81-.787 1.774 1.774 0 0 1-.174-.676C1 12.17 1 11.934 1 11.676V7.324c0-.258 0-.494.016-.692a1.77 1.77 0 0 1 .175-.676 1.75 1.75 0 0 1 .765-.765 1.77 1.77 0 0 1 .676-.175C2.83 5 3.066 5 3.324 5H6v-.676c0-.258 0-.494.016-.692a1.77 1.77 0 0 1 .175-.676 1.75 1.75 0 0 1 .765-.765 1.77 1.77 0 0 1 .676-.175C7.83 2 8.066 2 8.324 2ZM3.35 6.5c-.292 0-.467 0-.596.011a.626.626 0 0 0-.12.018.25.25 0 0 0-.105.104.626.626 0 0 0-.018.121c-.01.13-.011.304-.011.596v4.3c0 .292 0 .467.011.596a.625.625 0 0 0 .018.12.25.25 0 0 0 .104.105.638.638 0 0 0 .156.02l.015.001c.124.008.29.008.546.008H7v-.75a.75.75 0 0 1 1.5 0v.75h3v-.75a.75.75 0 0 1 1.5 0v.75h3.65c.257 0 .422 0 .546-.008h.015l.035-.003a.636.636 0 0 0 .12-.018.25.25 0 0 0 .105-.104.636.636 0 0 0 .018-.121c.01-.13.011-.304.011-.596v-4.3c0-.292 0-.467-.011-.596a.638.638 0 0 0-.018-.12.25.25 0 0 0-.105-.105.625.625 0 0 0-.12-.018 8.336 8.336 0 0 0-.596-.011H3.35ZM12.5 5h-5v-.65c0-.292 0-.467.011-.596a.626.626 0 0 1 .018-.12.25.25 0 0 1 .104-.105.626.626 0 0 1 .121-.018c.13-.01.304-.011.596-.011h3.3c.292 0 .467 0 .596.011a.625.625 0 0 1 .12.018.25.25 0 0 1 .105.104.638.638 0 0 1 .018.121c.01.13.011.304.011.596V5Zm-.03-1.37v.002-.001Zm-.1-.1h-.002.001Zm-4.74 0h.002-.001Zm-.1.102a.01.01 0 0 1 0-.001v.001Zm9.84 2.898h-.002.001Zm.1.1v.002-.001Zm0 5.74v-.002.001Zm-.1.1h-.002.001ZM16.5 14H13v.25a.75.75 0 0 1-1.5 0V14h-3v.25a.75.75 0 0 1-1.5 0V14H3.5v1.65c0 .292 0 .467.011.596a.625.625 0 0 0 .018.12.25.25 0 0 0 .104.105.638.638 0 0 0 .121.018c.13.01.304.011.596.011h11.3c.292 0 .467 0 .596-.011a.636.636 0 0 0 .12-.018.25.25 0 0 0 .105-.105.636.636 0 0 0 .018-.12c.01-.13.011-.304.011-.596V14Zm-.03 2.37v-.002.001Zm-.1.1h-.002.001Zm-12.74 0h.002-.001Zm-.1-.102a.02.02 0 0 1 0 .001v-.001Zm-.9-3.898h.002-.001Zm-.1-.102a.02.02 0 0 1 0 .001v-.001Zm0-5.736a.01.01 0 0 1 0-.001v.001Zm.102-.103h-.001.001Z" clip-rule="evenodd"/>
</svg>
