<svg xmlns="http://www.w3.org/2000/svg" width="20" height="20" fill="currentColor">
  <path fill-rule="evenodd" d="M8.07 2.268A1.75 1.75 0 0 1 9.752 1a2.747 2.747 0 0 1 2.746 2.747V6.15c0 .292.001.467.012.596a.638.638 0 0 0 .017.12.25.25 0 0 0 .105.105.628.628 0 0 0 .12.018c.13.01.304.011.596.011h1.366c.69 0 1.257 0 1.71.04.466.042.902.132 1.29.372.576.357 1.017.92 1.206 1.587.126.444.087.893-.004 1.35-.083.417-.228.922-.4 1.527-.016.052-.03.105-.046.16l-1.17 4.099-.035.12c-.202.71-.36 1.265-.697 1.694-.29.37-.67.664-1.116.847-.503.205-1.077.205-1.811.204H4.918c-.534 0-.98 0-1.344-.03-.38-.03-.737-.098-1.074-.27a2.75 2.75 0 0 1-1.202-1.2c-.172-.338-.239-.694-.27-1.074-.03-.365-.03-.81-.03-1.345v-3.16c0-.535 0-.98.03-1.345.031-.38.098-.736.27-1.073A2.75 2.75 0 0 1 2.5 8.3c.337-.172.694-.24 1.074-.27C3.938 8 4.384 8 4.918 8h.874c.226 0 .358 0 .456-.007a.541.541 0 0 0 .092-.012.25.25 0 0 0 .1-.075.542.542 0 0 0 .036-.086c.034-.092.07-.218.133-.436L8.07 2.268Zm-1.63 5.64v-.002.001Zm-.097.072H6.34h.002Zm6.287-1.01h.002-.002Zm-.1-.1-.001-.002v.001ZM9.751 2.5a.248.248 0 0 0-.24.18l-1.46 5.116-.025.083c-.092.328-.19.678-.407.952a1.75 1.75 0 0 1-.714.54c-.13.052-.268.084-.407.103V17.5h7.01c.932 0 1.182-.014 1.376-.093.195-.08.366-.21.504-.385.13-.165.213-.404.468-1.299l1.17-4.1.038-.13c.182-.638.31-1.084.38-1.437.073-.371.062-.543.032-.647a1.266 1.266 0 0 0-.553-.722c-.097-.06-.26-.12-.634-.152-.378-.034-.877-.035-1.611-.035h-1.357c-.257 0-.494 0-.691-.016a1.774 1.774 0 0 1-.677-.175 1.75 1.75 0 0 1-.765-.765 1.775 1.775 0 0 1-.174-.676c-.017-.198-.017-.434-.017-.692v-2.43c0-.688-.558-1.246-1.246-1.246Zm-4.753 15v-8h-.05c-.573 0-.957 0-1.253.025-.287.023-.424.065-.515.111a1.25 1.25 0 0 0-.546.546c-.046.091-.088.228-.112.515-.024.296-.024.68-.024 1.253v3.1c0 .572 0 .957.024 1.252.024.288.066.425.112.515.12.236.31.427.546.547.09.046.228.088.515.111.296.024.68.025 1.253.025h.05Z" clip-rule="evenodd"/>
</svg>
