<svg xmlns="http://www.w3.org/2000/svg" width="20" height="20" fill="currentColor">
  <path fill-rule="evenodd" d="M6.358 1h8.722c.535 0 .98 0 1.345.03.38.03.736.098 1.073.27A2.75 2.75 0 0 1 18.7 2.502c.172.337.24.693.27 1.073.03.365.03.81.03 1.345v3.16c0 .535 0 .98-.03 1.345-.03.38-.098.736-.27 1.073a2.751 2.751 0 0 1-1.2 1.202c-.338.172-.694.24-1.074.27-.365.03-.81.03-1.345.03h-.873c-.227 0-.358 0-.457.007a.545.545 0 0 0-.091.012.25.25 0 0 0-.1.075.537.537 0 0 0-.037.086c-.034.092-.07.218-.132.437l-1.462 5.115c-.214.75-.9 1.268-1.681 1.268A2.747 2.747 0 0 1 7.5 16.253V13.85c0-.292 0-.467-.011-.596a.625.625 0 0 0-.018-.12.25.25 0 0 0-.104-.105.638.638 0 0 0-.121-.018A8.375 8.375 0 0 0 6.65 13H5.285c-.69 0-1.257 0-1.71-.04-.466-.042-.903-.132-1.29-.372A2.765 2.765 0 0 1 1.078 11c-.125-.444-.086-.893.005-1.35.083-.417.227-.922.4-1.527l.046-.159 1.17-4.1.034-.12c.202-.71.36-1.266.697-1.694.291-.37.67-.664 1.116-.847C5.05 1 5.623 1 6.358 1Zm1.011 12.03h-.001.001Zm.101.1v.002-.001Zm6.09-1.037-.001.001v-.001Zm.097-.073h.002-.002ZM6.49 2.5c-.932 0-1.182.014-1.376.093-.196.08-.367.21-.504.385-.13.165-.213.404-.469 1.299l-1.17 4.1-.037.13c-.183.638-.31 1.084-.38 1.437-.074.371-.062.543-.032.647.082.292.281.553.553.722.097.06.26.12.633.152.378.034.878.035 1.612.035h1.356c.258 0 .494 0 .692.016.213.018.446.057.676.175.33.167.597.435.765.764.118.23.157.464.175.677.016.198.016.434.016.692v2.43c0 .688.558 1.246 1.247 1.246a.25.25 0 0 0 .239-.18l1.461-5.116.024-.084c.093-.327.191-.676.407-.951a1.75 1.75 0 0 1 .715-.54c.13-.053.268-.084.407-.103V2.5H6.49Zm8.51 0v8h.05c.572 0 .957 0 1.252-.025.288-.023.425-.065.515-.111a1.25 1.25 0 0 0 .547-.547c.046-.09.088-.227.111-.514.024-.296.025-.68.025-1.253v-3.1c0-.572 0-.957-.025-1.253-.023-.287-.065-.424-.111-.514a1.25 1.25 0 0 0-.547-.547c-.09-.046-.227-.088-.515-.111-.295-.024-.68-.025-1.252-.025H15Z" clip-rule="evenodd"/>
</svg>
