<svg xmlns="http://www.w3.org/2000/svg" width="20" height="20" fill="currentColor">
  <path fill-rule="evenodd" d="M8.984 1.42a1.437 1.437 0 0 1 2.032 0l2.063 2.064c.561.561.561 1.47 0 2.032l-2.063 2.063a1.44 1.44 0 0 1-.266.21V9.25h2.75A2.75 2.75 0 0 1 16.25 12v.21c.095.059.184.129.266.21l2.063 2.064c.561.561.561 1.47 0 2.032l-2.063 2.063a1.436 1.436 0 0 1-2.032 0l-2.063-2.063a1.436 1.436 0 0 1 0-2.032l2.063-2.063a1.44 1.44 0 0 1 .266-.21V12a1.25 1.25 0 0 0-1.25-1.251h-7c-.69 0-1.25.56-1.25 1.25v.21c.095.059.184.129.266.21l2.063 2.064c.561.561.561 1.47 0 2.032l-2.063 2.063a1.436 1.436 0 0 1-2.032 0l-2.063-2.063a1.437 1.437 0 0 1 0-2.032l2.063-2.063c.082-.082.171-.152.266-.21V12A2.75 2.75 0 0 1 6.5 9.25h2.75V7.79a1.44 1.44 0 0 1-.266-.21L6.921 5.515a1.437 1.437 0 0 1 0-2.032L8.984 1.42ZM10 6.475 11.974 4.5 10 2.526 8.026 4.5 10 6.474Zm-5.5 7.052L2.526 15.5 4.5 17.474 6.474 15.5 4.5 13.526Zm-.045 3.993Zm.09 0ZM15.5 13.525 13.526 15.5l1.974 1.974 1.974-1.974-1.974-1.974Z" clip-rule="evenodd"/>
</svg>
