<svg xmlns="http://www.w3.org/2000/svg" width="20" height="20" fill="currentColor">
  <path fill-rule="evenodd" d="M6 5a4 4 0 1 1 8 0v.25a.75.75 0 0 1-1.5 0V5a2.5 2.5 0 0 0-5 0v3h7.75A2.75 2.75 0 0 1 18 10.75v5.5A2.75 2.75 0 0 1 15.25 19H4.75A2.75 2.75 0 0 1 2 16.25v-5.5A2.75 2.75 0 0 1 4.75 8H6V5ZM4.75 9.5c-.69 0-1.25.56-1.25 1.25v5.5c0 .69.56 1.25 1.25 1.25h10.5c.69 0 1.25-.56 1.25-1.25v-5.5c0-.69-.56-1.25-1.25-1.25H4.75ZM10 12a.75.75 0 0 1 .75.75v1.5a.75.75 0 0 1-1.5 0v-1.5A.75.75 0 0 1 10 12Z" clip-rule="evenodd"/>
</svg>
