<svg xmlns="http://www.w3.org/2000/svg" width="20" height="20" fill="currentColor">
  <g clip-path="url(#a)">
    <path fill-rule="evenodd" d="M10 2.5a2.5 2.5 0 1 0 0 5 2.5 2.5 0 0 0 0-5ZM6 5a4 4 0 1 1 8 0 4 4 0 0 1-8 0ZM3 16.625A5.625 5.625 0 0 1 8.625 11h2.125a.75.75 0 0 1 0 1.5H8.625A4.125 4.125 0 0 0 4.5 16.625c0 .483.392.875.875.875H8.75a.75.75 0 0 1 0 1.5H5.375A2.375 2.375 0 0 1 3 16.625Zm16.765-3.42a.75.75 0 0 1 .03 1.06l-4.25 4.5a.75.75 0 0 1-1.102-.013l-2.25-2.5a.75.75 0 1 1 1.114-1.004l1.706 1.896 3.692-3.909a.75.75 0 0 1 1.06-.03Z" clip-rule="evenodd"/>
  </g>
  <defs>
    <clipPath id="a">
      <path d="M0 0h20v20H0z"/>
    </clipPath>
  </defs>
</svg>
