<svg xmlns="http://www.w3.org/2000/svg" width="20" height="20" fill="currentColor">
  <path fill-rule="evenodd" d="M10 2.5a2.5 2.5 0 1 0 0 5 2.5 2.5 0 0 0 0-5ZM6 5a4 4 0 1 1 8 0 4 4 0 0 1-8 0ZM3 16.625A5.625 5.625 0 0 1 8.625 11h2.125a.75.75 0 0 1 0 1.5H8.625A4.125 4.125 0 0 0 4.5 16.625c0 .483.392.875.875.875H8.75a.75.75 0 0 1 0 1.5H5.375A2.375 2.375 0 0 1 3 16.625Zm10.22-3.405a.75.75 0 0 1 1.06 0L16 14.94l1.72-1.72a.75.75 0 1 1 1.06 1.06L17.06 16l1.72 1.72a.75.75 0 1 1-1.06 1.06L16 17.06l-1.72 1.72a.75.75 0 1 1-1.06-1.06L14.94 16l-1.72-1.72a.75.75 0 0 1 0-1.06Z" clip-rule="evenodd"/>
</svg>
