<svg xmlns="http://www.w3.org/2000/svg" width="20" height="20" fill="currentColor">
  <path fill-rule="evenodd" d="M10 2.5a2.5 2.5 0 1 0 0 5 2.5 2.5 0 0 0 0-5ZM6 5a4 4 0 1 1 8 0 4 4 0 0 1-8 0ZM3 16.625A5.625 5.625 0 0 1 8.625 11h2.125a.75.75 0 0 1 0 1.5H8.625A4.125 4.125 0 0 0 4.5 16.625c0 .483.392.875.875.875H8.75a.75.75 0 0 1 0 1.5H5.375A2.375 2.375 0 0 1 3 16.625Zm15.286-2.911a.73.73 0 0 0-1.033 0L13.5 17.467V18.5h1.033l3.753-3.753a.73.73 0 0 0 0-1.033Zm-2.094-1.06a2.23 2.23 0 1 1 3.155 3.154l-3.973 3.972a.75.75 0 0 1-.53.22H12.75a.75.75 0 0 1-.75-.75v-2.094a.75.75 0 0 1 .22-.53l3.972-3.973Z" clip-rule="evenodd"/>
</svg>
