<svg xmlns="http://www.w3.org/2000/svg" width="20" height="20" fill="currentColor">
  <path fill-rule="evenodd" d="M10 1a.75.75 0 0 1 .75.75v16.5a.75.75 0 0 1-1.5 0V1.75A.75.75 0 0 1 10 1ZM3.741 6.199a.75.75 0 0 1 1.06.042l3 3.25a.75.75 0 0 1 0 1.018l-3 3.25A.75.75 0 1 1 3.7 12.74l1.838-1.991H1.75a.75.75 0 0 1 0-1.5h3.787l-1.838-1.99a.75.75 0 0 1 .042-1.06Zm12.518 0a.75.75 0 0 1 .042 1.06L14.463 9.25h3.787a.75.75 0 0 1 0 1.5h-3.787l1.838 1.991A.75.75 0 1 1 15.2 13.76l-3-3.25a.75.75 0 0 1 0-1.018l3-3.25a.75.75 0 0 1 1.06-.042Z" clip-rule="evenodd"/>
</svg>
