<svg xmlns="http://www.w3.org/2000/svg" width="20" height="20" fill="currentColor">
  <path fill-rule="evenodd" d="M4.92 3h5.16c.535 0 .98 0 1.345.03.38.03.736.098 1.073.27A2.75 2.75 0 0 1 13.7 4.502c.172.337.24.693.27 1.073.02.246.027.529.029.851l1.471-.883c.372-.223.694-.416.964-.546.273-.132.607-.258.978-.223a1.75 1.75 0 0 1 1.249.706c.22.301.284.652.312.954.027.299.027.675.027 1.108v4.916c0 .434 0 .81-.027 1.108-.028.302-.092.653-.312.954a1.75 1.75 0 0 1-1.249.706c-.371.035-.704-.091-.978-.223-.27-.13-.592-.323-.964-.546L14 13.574c-.002.322-.009.605-.029.85-.03.38-.098.737-.27 1.075A2.751 2.751 0 0 1 12.5 16.7c-.338.172-.694.24-1.074.27-.365.03-.81.03-1.345.03H4.92c-.535 0-.98 0-1.345-.03-.38-.03-.736-.098-1.073-.27A2.75 2.75 0 0 1 1.3 15.5c-.172-.338-.24-.694-.27-1.074C1 14.06 1 13.615 1 13.08V6.92c0-.535 0-.98.03-1.345.03-.38.098-.736.27-1.073A2.75 2.75 0 0 1 2.502 3.3c.337-.172.693-.24 1.073-.27C3.94 3 4.385 3 4.92 3ZM14 11.825l2.213 1.328c.409.245.672.402.872.499.125.06.185.075.202.08a.25.25 0 0 0 .156-.09.99.99 0 0 0 .036-.213c.02-.222.021-.528.021-1.005V7.576c0-.477 0-.783-.021-1.005a.99.99 0 0 0-.036-.213.25.25 0 0 0-.156-.09.984.984 0 0 0-.202.08c-.2.097-.463.253-.872.499L14 8.175v3.65Zm-10.303-7.3c-.287.023-.424.065-.514.111a1.25 1.25 0 0 0-.547.547c-.046.09-.088.227-.111.514-.024.296-.025.68-.025 1.253v6.1c0 .572 0 .957.025 1.252.023.288.065.425.111.516.12.235.311.426.547.546.09.046.227.088.514.111.296.024.68.025 1.253.025h5.1c.572 0 .957 0 1.252-.025.288-.023.425-.065.516-.111a1.25 1.25 0 0 0 .546-.546c.046-.091.088-.228.111-.515.024-.296.025-.68.025-1.253v-6.1c0-.572 0-.957-.025-1.253-.023-.287-.065-.424-.111-.514a1.25 1.25 0 0 0-.546-.547c-.091-.046-.228-.088-.515-.111-.296-.024-.68-.025-1.253-.025h-5.1c-.572 0-.957 0-1.253.025Z" clip-rule="evenodd"/>
</svg>
