<svg xmlns="http://www.w3.org/2000/svg" width="20" height="20" fill="currentColor">
  <path fill-rule="evenodd" d="M1 4.75A2.75 2.75 0 0 1 3.75 2h12.5A2.75 2.75 0 0 1 19 4.75v10.5A2.75 2.75 0 0 1 16.25 18H3.75A2.75 2.75 0 0 1 1 15.25V4.75Zm1.5 2.5v2H5v-2H2.5ZM5 5.75H2.5v-1c0-.69.56-1.25 1.25-1.25H5v2.25ZM6.5 16.5h7v-13h-7v13Zm8.5-13v2.25h2.5v-1c0-.69-.56-1.25-1.25-1.25H15Zm2.5 3.75H15v2h2.5v-2Zm0 3.5H15v2h2.5v-2Zm0 3.5H15v2.25h1.25c.69 0 1.25-.56 1.25-1.25v-1ZM5 16.5v-2.25H2.5v1c0 .69.56 1.25 1.25 1.25H5Zm-2.5-3.75H5v-2H2.5v2Z" clip-rule="evenodd"/>
</svg>
