<svg xmlns="http://www.w3.org/2000/svg" width="20" height="20" fill="currentColor">
  <path fill-rule="evenodd" d="M9.92 1.25h.16c.535 0 .98 0 1.345.03.38.03.736.098 1.073.27A2.75 2.75 0 0 1 13.7 2.752c.172.337.24.693.27 1.073.03.365.03.81.03 1.345v10.16c0 .535 0 .98-.03 1.345-.03.38-.098.736-.27 1.073a2.751 2.751 0 0 1-1.2 1.202c-.338.172-.694.24-1.074.27-.365.03-.81.03-1.345.03h-.16c-.535 0-.98 0-1.345-.03-.38-.03-.736-.098-1.073-.27a2.75 2.75 0 0 1-1.203-1.2c-.172-.338-.24-.694-.27-1.074C6 16.31 6 15.865 6 15.33V5.17c0-.535 0-.98.03-1.345.03-.38.098-.736.27-1.073A2.75 2.75 0 0 1 7.502 1.55c.337-.172.693-.24 1.073-.27.365-.03.81-.03 1.345-.03ZM8.697 2.775c-.287.023-.424.065-.514.111a1.25 1.25 0 0 0-.547.547c-.046.09-.088.227-.111.514-.024.296-.025.68-.025 1.253v10.1c0 .572 0 .957.025 1.252.023.288.065.425.111.515.12.236.311.427.547.547.09.046.227.088.514.111.296.024.68.025 1.253.025h.1c.572 0 .957 0 1.252-.025.288-.023.425-.065.516-.111a1.25 1.25 0 0 0 .546-.547c.046-.09.088-.227.111-.515.024-.295.025-.68.025-1.252V5.2c0-.572 0-.957-.025-1.253-.023-.287-.065-.424-.111-.514a1.25 1.25 0 0 0-.546-.547c-.091-.046-.228-.088-.515-.111-.296-.024-.68-.025-1.253-.025h-.1c-.572 0-.957 0-1.253.025ZM1.75 4.25A.75.75 0 0 1 2.5 5v10.5a.75.75 0 0 1-1.5 0V5a.75.75 0 0 1 .75-.75Zm16.5 0A.75.75 0 0 1 19 5v10.5a.75.75 0 0 1-1.5 0V5a.75.75 0 0 1 .75-.75Z" clip-rule="evenodd"/>
</svg>
