<svg xmlns="http://www.w3.org/2000/svg" width="20" height="20" fill="currentColor">
  <path fill-rule="evenodd" d="M3.963 1h2.074c.196 0 .347 0 .483.013A2.75 2.75 0 0 1 8.987 3.48C9 3.616 9 3.767 9 3.963v.074c0 .196 0 .347-.013.483A2.75 2.75 0 0 1 6.52 6.987C6.384 7 6.233 7 6.037 7H3.963c-.196 0-.347 0-.483-.013A2.75 2.75 0 0 1 1.013 4.52C1 4.384 1 4.233 1 4.037a146.36 146.36 0 0 0 0-.074c0-.196 0-.347.013-.483A2.75 2.75 0 0 1 3.48 1.013C3.616 1 3.767 1 3.963 1ZM4 2.5c-.25 0-.32 0-.373.006a1.25 1.25 0 0 0-1.121 1.121A4.684 4.684 0 0 0 2.5 4c0 .25 0 .32.006.373a1.25 1.25 0 0 0 1.121 1.121c.052.005.123.006.373.006h2c.25 0 .32 0 .373-.006a1.25 1.25 0 0 0 1.121-1.121C7.499 4.32 7.5 4.25 7.5 4s0-.32-.006-.373a1.25 1.25 0 0 0-1.121-1.121A4.685 4.685 0 0 0 6 2.5H4ZM14.92 1h.16c.535 0 .98 0 1.345.03.38.03.736.098 1.073.27A2.75 2.75 0 0 1 18.7 2.502c.172.337.24.693.27 1.073.03.365.03.81.03 1.345v2.16c0 .535 0 .98-.03 1.345-.03.38-.098.736-.27 1.073a2.75 2.75 0 0 1-1.2 1.202c-.338.172-.694.24-1.074.27-.365.03-.81.03-1.345.03h-.16c-.535 0-.98 0-1.345-.03-.38-.03-.736-.098-1.073-.27A2.75 2.75 0 0 1 11.3 9.498c-.172-.337-.24-.693-.27-1.073C11 8.06 11 7.615 11 7.08V4.92c0-.535 0-.98.03-1.345.03-.38.098-.736.27-1.073A2.75 2.75 0 0 1 12.5 1.3c.338-.172.694-.24 1.074-.27.365-.03.81-.03 1.345-.03Zm-1.223 1.525c-.287.023-.424.065-.514.111a1.25 1.25 0 0 0-.547.547c-.046.09-.088.227-.111.514-.024.296-.025.68-.025 1.253v2.1c0 .572 0 .957.025 1.253.023.287.065.424.111.514.12.236.311.427.546.547.091.046.228.088.515.111.296.024.68.025 1.253.025h.1c.572 0 .957 0 1.252-.025.288-.023.425-.065.515-.111a1.25 1.25 0 0 0 .547-.547c.046-.09.088-.227.111-.514.024-.296.025-.68.025-1.253v-2.1c0-.572 0-.957-.025-1.253-.023-.287-.065-.424-.111-.514a1.25 1.25 0 0 0-.547-.547c-.09-.046-.227-.088-.515-.111-.295-.024-.68-.025-1.252-.025h-.1c-.572 0-.957 0-1.252.025ZM4.92 9h.16c.535 0 .98 0 1.345.03.38.03.736.098 1.073.27A2.75 2.75 0 0 1 8.7 10.5c.172.338.24.694.27 1.074.03.365.03.81.03 1.345v2.16c0 .535 0 .98-.03 1.345-.03.38-.098.736-.27 1.073A2.75 2.75 0 0 1 7.498 18.7c-.337.172-.693.24-1.073.27-.365.03-.81.03-1.345.03h-.16c-.535 0-.98 0-1.345-.03-.38-.03-.736-.098-1.073-.27A2.75 2.75 0 0 1 1.3 17.5c-.172-.338-.24-.694-.27-1.074C1 16.06 1 15.615 1 15.08v-2.16c0-.535 0-.98.03-1.345.03-.38.098-.736.27-1.073A2.75 2.75 0 0 1 2.502 9.3c.337-.172.693-.24 1.073-.27C3.94 9 4.385 9 4.92 9Zm-1.223 1.525c-.287.023-.424.065-.514.111a1.25 1.25 0 0 0-.547.546c-.046.091-.088.228-.111.515-.024.296-.025.68-.025 1.253v2.1c0 .572 0 .957.025 1.252.023.288.065.425.111.515.12.236.311.427.547.547.09.046.227.088.514.111.296.024.68.025 1.253.025h.1c.572 0 .957 0 1.253-.025.287-.023.424-.065.514-.111a1.25 1.25 0 0 0 .547-.547c.046-.09.088-.227.111-.515.024-.295.025-.68.025-1.252v-2.1c0-.572 0-.957-.025-1.252-.023-.288-.065-.425-.111-.516a1.25 1.25 0 0 0-.547-.546c-.09-.046-.227-.088-.514-.111-.296-.024-.68-.025-1.253-.025h-.1c-.572 0-.957 0-1.253.025ZM13.963 13h2.074c.196 0 .347 0 .483.013a2.75 2.75 0 0 1 2.467 2.467c.013.136.013.287.013.483v.074c0 .196 0 .347-.013.483a2.75 2.75 0 0 1-2.467 2.467 5.122 5.122 0 0 1-.483.013h-2.074c-.196 0-.347 0-.483-.013a2.75 2.75 0 0 1-2.467-2.467 5.122 5.122 0 0 1-.013-.483v-.074c0-.196 0-.347.013-.483a2.75 2.75 0 0 1 2.467-2.467c.136-.013.287-.013.483-.013ZM14 14.5c-.25 0-.32 0-.373.006a1.25 1.25 0 0 0-1.121 1.121A4.695 4.695 0 0 0 12.5 16c0 .25 0 .32.006.372a1.25 1.25 0 0 0 1.121 1.122c.052.005.123.006.373.006h2c.25 0 .32 0 .372-.006a1.25 1.25 0 0 0 1.122-1.122c.005-.051.006-.122.006-.372s0-.32-.006-.373a1.25 1.25 0 0 0-1.122-1.121A4.696 4.696 0 0 0 16 14.5h-2Z" clip-rule="evenodd"/>
</svg>
