<svg xmlns="http://www.w3.org/2000/svg" width="20" height="20" fill="currentColor">
  <path fill-rule="evenodd" d="M5.75 1a.75.75 0 0 1 .75.75v16.5a.75.75 0 0 1-1.5 0V1.75A.75.75 0 0 1 5.75 1ZM10 4a.75.75 0 0 1 .75.75v10.5a.75.75 0 0 1-1.5 0V4.75A.75.75 0 0 1 10 4Zm8.25 1a.75.75 0 0 1 .75.75v8.5a.75.75 0 0 1-1.5 0v-8.5a.75.75 0 0 1 .75-.75ZM1.75 7a.75.75 0 0 1 .75.75v4.5a.75.75 0 0 1-1.5 0v-4.5A.75.75 0 0 1 1.75 7Zm12.5 1a.75.75 0 0 1 .75.75v2.5a.75.75 0 0 1-1.5 0v-2.5a.75.75 0 0 1 .75-.75Z" clip-rule="evenodd"/>
</svg>
