<svg xmlns="http://www.w3.org/2000/svg" width="20" height="20" fill="currentColor">
  <path fill-rule="evenodd" d="M9.55 3.063c.274.12.45.39.45.687v12.5a.75.75 0 0 1-1.259.551l-2.372-2.19c-.32-.295-.408-.372-.499-.428a1.25 1.25 0 0 0-.408-.159c-.104-.02-.22-.024-.657-.024H4.78c-.47 0-.861 0-1.182-.023-.335-.024-.65-.076-.954-.21a2.75 2.75 0 0 1-1.41-1.41c-.134-.303-.186-.619-.21-.954C1 11.083 1 10.691 1 10.221V9.78c0-.47 0-.861.023-1.182.024-.335.076-.65.21-.954a2.75 2.75 0 0 1 1.41-1.41c.304-.134.619-.186.954-.21C3.917 6 4.309 6 4.779 6h.026c.437 0 .553-.003.657-.024a1.25 1.25 0 0 0 .408-.16c.09-.055.179-.132.5-.427l2.371-2.19a.75.75 0 0 1 .81-.136Zm-1.05 2.4L7.387 6.491l-.045.04c-.255.237-.457.423-.69.565a2.75 2.75 0 0 1-.897.351c-.267.053-.541.053-.89.053h-.06c-.502 0-.84 0-1.1.02-.254.017-.377.05-.458.086a1.25 1.25 0 0 0-.641.64c-.036.082-.069.205-.087.458-.019.261-.019.599-.019 1.101v.39c0 .502 0 .84.02 1.1.017.255.05.377.086.458.126.287.354.515.64.641.082.036.205.069.458.087.261.018.599.019 1.101.019h.06c.349 0 .623 0 .89.053.318.063.621.182.897.35.233.143.435.33.69.565l.045.041L8.5 14.537V5.463Zm4.08.952a.75.75 0 0 1 1.005-.336c.705.353 1.182.986 1.478 1.67.298.688.437 1.48.437 2.251 0 .772-.14 1.563-.437 2.25-.296.685-.773 1.318-1.478 1.67a.75.75 0 1 1-.67-1.34c.295-.148.568-.453.772-.925.202-.468.313-1.052.313-1.655s-.11-1.187-.313-1.655c-.204-.472-.477-.777-.772-.924a.75.75 0 0 1-.336-1.006Z" clip-rule="evenodd"/>
</svg>
