<svg xmlns="http://www.w3.org/2000/svg" width="20" height="20" fill="currentColor">
  <path fill-rule="evenodd" d="M1.198 1.242a.75.75 0 0 1 1.06-.044l2.338 2.153L17.74 14.68a.75.75 0 0 1-.98 1.137l-3.557-3.066a.753.753 0 0 1-.197-.125 4.573 4.573 0 0 0-6.012 0 .75.75 0 1 1-.988-1.129A6.053 6.053 0 0 1 10.011 10L7.52 7.851c-1.05.31-2.003.818-2.762 1.514A.75.75 0 0 1 3.743 8.26a8.21 8.21 0 0 1 2.466-1.538L3.975 4.797a8.162 8.162 0 0 0-1.731 1.142.75.75 0 1 1-.988-1.128 9.324 9.324 0 0 1 1.535-1.082L1.242 2.302a.75.75 0 0 1-.044-1.06Zm16.558 4.697c-2.353-2.058-6.542-2.858-10.31-2.23a.75.75 0 0 1-.246-1.48c4.044-.674 8.743.131 11.544 2.582a.75.75 0 0 1-.988 1.128Zm-6.556.855a.75.75 0 0 1 .884-.585c1.545.314 3.016.99 4.173 2.05a.75.75 0 0 1-1.014 1.106c-.924-.847-2.136-1.417-3.458-1.687a.75.75 0 0 1-.585-.884ZM10 15.5a.5.5 0 1 0 0 1 .5.5 0 0 0 0-1ZM8 16a2 2 0 1 1 4 0 2 2 0 0 1-4 0Z" clip-rule="evenodd"/>
</svg>
